<svg width="182" height="35" viewBox="0 0 182 35" fill="none" xmlns="http://www.w3.org/2000/svg">
<path d="M69.6369 21.0221C68.7075 20.9189 68.0363 20.705 67.6233 20.3804C67.225 20.0559 66.9963 19.5322 66.9373 18.8094C66.3768 19.5912 65.6834 20.1887 64.8574 20.6017C64.046 21.0148 63.1093 21.2213 62.0472 21.2213C61.2064 21.2213 60.4393 21.1549 59.746 21.0221C59.0674 20.8894 58.4994 20.6607 58.0422 20.3362C57.5996 19.9969 57.2751 19.547 57.0686 18.9864C56.8768 18.4111 56.8399 17.6957 56.9579 16.8401C57.0907 15.8665 57.3415 15.0625 57.7102 14.4282C58.079 13.7939 58.5363 13.2923 59.0821 12.9235C59.6427 12.54 60.2844 12.2745 61.0072 12.127C61.73 11.9794 62.5119 11.9057 63.3527 11.9057H66.8488C66.9078 11.1976 66.9004 10.6444 66.8267 10.2461C66.7677 9.83309 66.6275 9.53069 66.4063 9.33892C66.185 9.1324 65.8752 9.00701 65.4769 8.96275C65.0786 8.90375 64.5771 8.87424 63.9723 8.87424C63.5297 8.87424 63.0872 8.90375 62.6446 8.96275C62.2021 9.02176 61.789 9.09552 61.4055 9.18403C61.022 9.27254 60.6679 9.36842 60.3434 9.47168C60.0189 9.56019 59.746 9.64132 59.5247 9.71508L59.1264 7.43597C59.7755 7.14094 60.5499 6.91229 61.4498 6.75002C62.3496 6.58776 63.3158 6.50662 64.3484 6.50662C65.5433 6.50662 66.5243 6.59513 67.2914 6.77215C68.0732 6.94917 68.6706 7.29583 69.0837 7.81213C69.4967 8.32844 69.7327 9.06601 69.7917 10.0249C69.8655 10.9837 69.7917 12.245 69.5705 13.8086L69.5262 14.1627L69.1722 16.6409C69.0689 17.3637 69.0984 17.8727 69.2607 18.1677C69.423 18.4627 69.7401 18.6471 70.2122 18.7209L69.6369 21.0221ZM66.539 14.2954H63.0208C62.593 14.2954 62.2021 14.3249 61.848 14.3839C61.494 14.4282 61.1769 14.5388 60.8966 14.7158C60.6163 14.8929 60.3803 15.151 60.1885 15.4903C59.9967 15.8148 59.864 16.2648 59.7902 16.8401C59.7312 17.2826 59.7533 17.6367 59.8566 17.9022C59.9599 18.1677 60.1295 18.3669 60.3655 18.4996C60.6015 18.6324 60.8892 18.7209 61.2285 18.7651C61.5825 18.8094 61.9734 18.8315 62.4012 18.8315C63.1536 18.8315 63.7731 18.7356 64.2599 18.5439C64.7467 18.3521 65.1376 18.0644 65.4327 17.6809C65.7424 17.2974 65.9785 16.8327 66.1407 16.2869C66.303 15.7263 66.4358 15.0773 66.539 14.3397V14.2954ZM81.434 21L83.0714 9.20615H78.8672L77.4068 16.5524C77.2298 17.526 76.9864 18.3152 76.6766 18.92C76.3816 19.5248 75.9833 19.9969 75.4817 20.3362C74.9949 20.6607 74.3901 20.882 73.6673 21C72.9445 21.1033 72.0741 21.1549 71.0563 21.1549L71.4988 18.8758C71.9414 18.8758 72.3249 18.861 72.6494 18.8315C72.974 18.7873 73.2543 18.6988 73.4903 18.566C73.7263 18.4185 73.9255 18.1972 74.0877 17.9022C74.25 17.5924 74.3828 17.172 74.486 16.6409L76.5439 6.79428H86.3241L84.3327 21H81.434ZM96.3253 16.3754C96.3991 15.8738 96.4064 15.4829 96.3474 15.2026C96.3032 14.9224 96.1925 14.7158 96.0155 14.5831C95.8385 14.4356 95.5877 14.3471 95.2632 14.3176C94.9534 14.2881 94.5699 14.2733 94.1126 14.2733H91.2582L90.6607 18.6324H93.5151C93.9724 18.6324 94.3634 18.6176 94.6879 18.5881C95.0124 18.5586 95.2779 18.4775 95.4845 18.3447C95.7057 18.1972 95.8754 17.9833 95.9934 17.703C96.1262 17.408 96.2294 17.0097 96.3032 16.5082L96.3253 16.3754ZM87.408 21L89.3995 6.79428H92.3203L91.5901 11.9057H94.4002C95.4476 11.9057 96.3179 11.9647 97.0113 12.0827C97.7046 12.186 98.243 12.3999 98.6265 12.7244C99.0101 13.0342 99.2461 13.4915 99.3346 14.0963C99.4379 14.6863 99.4231 15.4682 99.2904 16.4418C99.1576 17.4154 98.9585 18.2046 98.6929 18.8094C98.4274 19.3995 98.0586 19.8568 97.5866 20.1813C97.1145 20.5058 96.5171 20.7271 95.7943 20.8451C95.0714 20.9484 94.1863 21 93.139 21H87.408ZM108.666 21L109.374 15.8886H107.626L104.683 18.9422C104.152 19.488 103.665 19.9158 103.222 20.2255C102.78 20.5206 102.352 20.7345 101.939 20.8672C101.541 21 101.135 21.0664 100.722 21.0664C100.324 21.0664 99.9034 21.0443 99.4608 21L99.5051 18.9422C99.6526 18.9422 99.8148 18.9495 99.9919 18.9643C100.184 18.979 100.368 18.9864 100.545 18.9864C100.737 18.9717 100.914 18.9422 101.076 18.8979C101.238 18.8537 101.371 18.7799 101.474 18.6766L104.329 15.778C103.724 15.7042 103.222 15.5788 102.824 15.4018C102.441 15.2248 102.138 14.9666 101.917 14.6273C101.71 14.2733 101.585 13.8381 101.541 13.3218C101.511 12.7908 101.556 12.1343 101.674 11.3525C101.806 10.3789 102.005 9.59707 102.271 9.00701C102.537 8.4022 102.905 7.93752 103.377 7.61299C103.864 7.28845 104.469 7.07456 105.192 6.9713C105.915 6.85329 106.8 6.79428 107.847 6.79428H113.578L111.587 21H108.666ZM104.639 11.4189C104.565 11.9204 104.55 12.3114 104.594 12.5916C104.653 12.8719 104.771 13.0858 104.948 13.2333C105.125 13.3661 105.369 13.4472 105.679 13.4767C105.988 13.5062 106.379 13.521 106.851 13.521H109.706L110.325 9.1619H107.471C106.999 9.1619 106.601 9.17665 106.276 9.20615C105.966 9.23566 105.701 9.32417 105.479 9.47168C105.258 9.60444 105.081 9.81834 104.948 10.1134C104.83 10.3937 104.734 10.7846 104.661 11.2861L104.639 11.4189ZM123.158 21L124.043 14.6495H118.29L117.405 21H114.506L116.498 6.79428H119.396L118.622 12.2376H124.375L125.149 6.79428H128.048L126.057 21H123.158ZM141.051 20.3141C140.388 20.6091 139.591 20.8451 138.662 21.0221C137.732 21.1991 136.751 21.2877 135.719 21.2877C134.627 21.2877 133.654 21.1918 132.798 21C131.957 20.823 131.256 20.4689 130.696 19.9379C130.15 19.4068 129.774 18.6619 129.567 17.703C129.376 16.7294 129.39 15.4608 129.612 13.8971C129.833 12.3335 130.18 11.0722 130.652 10.1134C131.124 9.13977 131.706 8.38744 132.4 7.85639C133.093 7.32533 133.89 6.9713 134.789 6.79428C135.704 6.60251 136.707 6.50662 137.799 6.50662C139.879 6.50662 141.494 6.80165 142.645 7.39172L141.583 9.67083C141.184 9.53806 140.631 9.3758 139.923 9.18403C139.215 8.9775 138.411 8.87424 137.511 8.87424C136.906 8.87424 136.338 8.9185 135.807 9.00701C135.276 9.09552 134.797 9.30941 134.369 9.6487C133.956 9.98798 133.595 10.4969 133.285 11.1755C132.975 11.8393 132.739 12.7465 132.577 13.8971C132.414 15.0625 132.392 15.9845 132.51 16.6631C132.628 17.3269 132.85 17.8284 133.174 18.1677C133.513 18.4922 133.934 18.6988 134.435 18.7873C134.937 18.8758 135.49 18.92 136.095 18.92C136.538 18.92 136.98 18.8905 137.423 18.8315C137.88 18.7578 138.308 18.6766 138.706 18.5881C139.104 18.4996 139.466 18.4037 139.79 18.3005C140.13 18.1972 140.41 18.1087 140.631 18.0349L141.051 20.3141ZM143.627 16.995L143.937 14.7158H149.336L149.026 16.995H143.627ZM163.525 20.3141C162.862 20.6091 162.065 20.8451 161.136 21.0221C160.206 21.1991 159.225 21.2877 158.193 21.2877C157.101 21.2877 156.127 21.1918 155.272 21C154.431 20.823 153.73 20.4689 153.17 19.9379C152.624 19.4068 152.248 18.6619 152.041 17.703C151.85 16.7294 151.864 15.4608 152.086 13.8971C152.307 12.3335 152.653 11.0722 153.126 10.1134C153.598 9.13977 154.18 8.38744 154.874 7.85639C155.567 7.32533 156.363 6.9713 157.263 6.79428C158.178 6.60251 159.181 6.50662 160.273 6.50662C162.353 6.50662 163.968 6.80165 165.119 7.39172L164.056 9.67083C163.658 9.53806 163.105 9.3758 162.397 9.18403C161.689 8.9775 160.885 8.87424 159.985 8.87424C159.38 8.87424 158.812 8.9185 158.281 9.00701C157.75 9.09552 157.271 9.30941 156.843 9.6487C156.43 9.98798 156.068 10.4969 155.759 11.1755C155.449 11.8393 155.213 12.7465 155.051 13.8971C154.888 15.0625 154.866 15.9845 154.984 16.6631C155.102 17.3269 155.324 17.8284 155.648 18.1677C155.987 18.4922 156.408 18.6988 156.909 18.7873C157.411 18.8758 157.964 18.92 158.569 18.92C159.011 18.92 159.454 18.8905 159.896 18.8315C160.354 18.7578 160.782 18.6766 161.18 18.5881C161.578 18.4996 161.94 18.4037 162.264 18.3005C162.603 18.1972 162.884 18.1087 163.105 18.0349L163.525 20.3141Z" fill="white"/>
<path d="M56.7664 32.2734V26.6746H61.4107V32.2734H60.4668V27.5112H57.7103V32.2734H56.7664ZM65.7356 32.3807C65.2779 32.3807 64.8703 32.2663 64.5128 32.0375C64.1553 31.8087 63.8728 31.5191 63.6655 31.1687V34.558H62.7216V26.6746H63.5582V27.7257C63.7799 27.3825 64.0695 27.1072 64.427 26.8998C64.7845 26.6853 65.1742 26.578 65.5961 26.578C65.9823 26.578 66.3362 26.6567 66.658 26.814C66.9798 26.9713 67.2586 27.1858 67.4946 27.4575C67.7306 27.7293 67.9129 28.0403 68.0416 28.3907C68.1775 28.7339 68.2454 29.095 68.2454 29.474C68.2454 30.0031 68.1381 30.4894 67.9236 30.9327C67.7163 31.376 67.4231 31.73 67.0441 31.9946C66.6651 32.252 66.2289 32.3807 65.7356 32.3807ZM65.446 31.5655C65.7248 31.5655 65.9751 31.5083 66.1968 31.3939C66.4256 31.2724 66.6187 31.115 66.776 30.922C66.9404 30.7218 67.0656 30.4965 67.1514 30.2463C67.2372 29.996 67.2801 29.7386 67.2801 29.474C67.2801 29.1951 67.23 28.9306 67.1299 28.6803C67.037 28.43 66.9011 28.2084 66.7223 28.0153C66.5507 27.8222 66.3469 27.6721 66.111 27.5648C65.8821 27.4504 65.6319 27.3932 65.3602 27.3932C65.1885 27.3932 65.0098 27.4254 64.8239 27.4897C64.6451 27.5541 64.4735 27.647 64.309 27.7686C64.1446 27.883 64.0051 28.0153 63.8907 28.1654C63.7763 28.3156 63.7012 28.4765 63.6655 28.6481V30.2463C63.7727 30.4894 63.9157 30.711 64.0945 30.9113C64.2733 31.1115 64.4806 31.2724 64.7166 31.3939C64.9526 31.5083 65.1957 31.5655 65.446 31.5655ZM71.6353 32.3807C71.2134 32.3807 70.8308 32.3056 70.4876 32.1555C70.1444 31.9981 69.8476 31.7872 69.5974 31.5226C69.3471 31.2509 69.154 30.9399 69.0182 30.5895C68.8823 30.2391 68.8144 29.8709 68.8144 29.4847C68.8144 29.0914 68.8823 28.7196 69.0182 28.3692C69.154 28.0189 69.3471 27.7114 69.5974 27.4468C69.8476 27.1751 70.1444 26.9642 70.4876 26.814C70.838 26.6567 71.2241 26.578 71.646 26.578C72.0607 26.578 72.4397 26.6567 72.7829 26.814C73.1262 26.9642 73.4229 27.1751 73.6732 27.4468C73.9306 27.7114 74.1272 28.0189 74.2631 28.3692C74.3989 28.7196 74.4669 29.0914 74.4669 29.4847C74.4669 29.8709 74.3989 30.2391 74.2631 30.5895C74.1272 30.9399 73.9342 31.2509 73.6839 31.5226C73.4336 31.7872 73.1333 31.9981 72.7829 32.1555C72.4397 32.3056 72.0571 32.3807 71.6353 32.3807ZM69.7797 29.4955C69.7797 29.8816 69.8619 30.232 70.0264 30.5466C70.198 30.8612 70.4232 31.1115 70.7021 31.2974C70.981 31.4762 71.292 31.5655 71.6353 31.5655C71.9785 31.5655 72.2895 31.4726 72.5684 31.2867C72.8544 31.1007 73.0797 30.8505 73.2441 30.5359C73.4157 30.2141 73.5016 29.8601 73.5016 29.474C73.5016 29.0879 73.4157 28.7375 73.2441 28.4229C73.0797 28.1082 72.8544 27.858 72.5684 27.6721C72.2895 27.4861 71.9785 27.3932 71.6353 27.3932C71.292 27.3932 70.981 27.4897 70.7021 27.6828C70.4232 27.8687 70.198 28.119 70.0264 28.4336C69.8619 28.7482 69.7797 29.1022 69.7797 29.4955ZM75.3854 32.2734V26.6853H76.3292V31.0078L79.4612 26.6746H80.3192V32.2734H79.3754V28.0367L76.2863 32.2734H75.3854ZM83.3612 32.3485C82.8177 32.3485 82.3565 32.2484 81.9775 32.0482C81.6057 31.8408 81.3197 31.5548 81.1195 31.1901L81.8917 30.8469C82.0205 31.0757 82.2028 31.2545 82.4388 31.3832C82.6819 31.5119 82.975 31.5763 83.3183 31.5763C83.7259 31.5763 84.0476 31.4869 84.2836 31.3081C84.5196 31.1294 84.6376 30.8898 84.6376 30.5895C84.6376 30.3178 84.541 30.0997 84.348 29.9352C84.162 29.7636 83.8975 29.6742 83.5542 29.6671H82.9858V29.045H83.5864C83.7366 29.045 83.8689 29.0092 83.9833 28.9377C84.1048 28.8591 84.1978 28.7554 84.2621 28.6267C84.3337 28.4979 84.3694 28.3549 84.3694 28.1976C84.3694 27.9474 84.28 27.7471 84.1013 27.597C83.9225 27.4397 83.6544 27.361 83.2968 27.361C83.0037 27.361 82.757 27.4182 82.5567 27.5326C82.3637 27.647 82.2064 27.8186 82.0848 28.0475L81.3662 27.6613C81.5449 27.3253 81.8024 27.0643 82.1384 26.8784C82.4817 26.6853 82.8821 26.5888 83.3397 26.5888C83.7044 26.5888 84.0262 26.6495 84.3051 26.7711C84.5911 26.8855 84.8127 27.0535 84.9701 27.2752C85.1345 27.4969 85.2167 27.765 85.2167 28.0796C85.2167 28.3442 85.1524 28.5909 85.0237 28.8197C84.9021 29.0414 84.7198 29.2094 84.4767 29.3238C84.8127 29.4239 85.0702 29.5991 85.2489 29.8494C85.4277 30.0925 85.5171 30.3821 85.5171 30.7182C85.5171 31.0614 85.4241 31.3546 85.2382 31.5977C85.0523 31.8408 84.7984 32.0267 84.4767 32.1555C84.1549 32.2842 83.7831 32.3485 83.3612 32.3485ZM86.4258 32.2734V26.6746H89.3218C89.6579 26.6746 89.9367 26.7425 90.1584 26.8784C90.3801 27.0071 90.5445 27.1751 90.6518 27.3825C90.7662 27.5898 90.8234 27.8115 90.8234 28.0475C90.8234 28.3478 90.7519 28.6195 90.6089 28.8626C90.4659 29.0986 90.2585 29.2774 89.9868 29.3989C90.3086 29.4919 90.5696 29.6599 90.7698 29.903C90.97 30.139 91.0701 30.4322 91.0701 30.7825C91.0701 31.0972 90.995 31.3653 90.8449 31.587C90.6947 31.8087 90.4838 31.9803 90.212 32.1018C89.9403 32.2162 89.6257 32.2734 89.2682 32.2734H86.4258ZM87.3268 31.6084H89.2467C89.4183 31.6084 89.5721 31.5655 89.7079 31.4797C89.8509 31.3939 89.9618 31.2795 90.0404 31.1365C90.1191 30.9935 90.1584 30.8433 90.1584 30.686C90.1584 30.5144 90.1191 30.3607 90.0404 30.2248C89.9689 30.0818 89.8652 29.971 89.7294 29.8923C89.6007 29.8065 89.4505 29.7636 89.2789 29.7636H87.3268V31.6084ZM87.3268 29.1415H89.0751C89.2467 29.1415 89.3969 29.0986 89.5256 29.0128C89.6543 28.9198 89.7544 28.8018 89.8259 28.6588C89.8974 28.5158 89.9332 28.3657 89.9332 28.2084C89.9332 27.9724 89.8545 27.7686 89.6972 27.597C89.547 27.4254 89.3504 27.3396 89.1073 27.3396H87.3268V29.1415ZM94.5018 32.3807C94.0799 32.3807 93.6973 32.3056 93.3541 32.1555C93.0109 31.9981 92.7141 31.7872 92.4639 31.5226C92.2136 31.2509 92.0205 30.9399 91.8847 30.5895C91.7488 30.2391 91.6809 29.8709 91.6809 29.4847C91.6809 29.0914 91.7488 28.7196 91.8847 28.3692C92.0205 28.0189 92.2136 27.7114 92.4639 27.4468C92.7141 27.1751 93.0109 26.9642 93.3541 26.814C93.7045 26.6567 94.0906 26.578 94.5125 26.578C94.9272 26.578 95.3062 26.6567 95.6494 26.814C95.9927 26.9642 96.2894 27.1751 96.5397 27.4468C96.7971 27.7114 96.9937 28.0189 97.1296 28.3692C97.2655 28.7196 97.3334 29.0914 97.3334 29.4847C97.3334 29.8709 97.2655 30.2391 97.1296 30.5895C96.9937 30.9399 96.8007 31.2509 96.5504 31.5226C96.3001 31.7872 95.9998 31.9981 95.6494 32.1555C95.3062 32.3056 94.9237 32.3807 94.5018 32.3807ZM92.6462 29.4955C92.6462 29.8816 92.7284 30.232 92.8929 30.5466C93.0645 30.8612 93.2898 31.1115 93.5686 31.2974C93.8475 31.4762 94.1586 31.5655 94.5018 31.5655C94.845 31.5655 95.1561 31.4726 95.4349 31.2867C95.7209 31.1007 95.9462 30.8505 96.1107 30.5359C96.2823 30.2141 96.3681 29.8601 96.3681 29.474C96.3681 29.0879 96.2823 28.7375 96.1107 28.4229C95.9462 28.1082 95.7209 27.858 95.4349 27.6721C95.1561 27.4861 94.845 27.3932 94.5018 27.3932C94.1586 27.3932 93.8475 27.4897 93.5686 27.6828C93.2898 27.8687 93.0645 28.119 92.8929 28.4336C92.7284 28.7482 92.6462 29.1022 92.6462 29.4955ZM97.6405 33.5927V31.4368H97.7585C97.9158 31.4368 98.0588 31.3903 98.1875 31.2974C98.3234 31.2044 98.4414 31.0435 98.5415 30.8147C98.6487 30.5788 98.7345 30.257 98.7989 29.8494C98.8633 29.4418 98.9062 28.9234 98.9276 28.2942L98.9812 26.6746H102.789V31.4368H103.55V33.5927H102.714V32.2734H98.4771V33.5927H97.6405ZM99.0778 31.4368H101.845V27.5112H99.8178L99.7857 28.38C99.7642 28.9878 99.7213 29.499 99.657 29.9138C99.5998 30.3213 99.5211 30.6467 99.421 30.8898C99.328 31.1329 99.2136 31.3153 99.0778 31.4368ZM106.863 32.3807C106.441 32.3807 106.055 32.3056 105.704 32.1555C105.361 31.9981 105.061 31.7836 104.803 31.5119C104.553 31.2402 104.357 30.9291 104.214 30.5788C104.078 30.2284 104.01 29.8566 104.01 29.4633C104.01 28.9341 104.128 28.4515 104.364 28.0153C104.6 27.5791 104.932 27.2323 105.361 26.9749C105.79 26.7103 106.287 26.578 106.852 26.578C107.403 26.578 107.882 26.7032 108.289 26.9534C108.704 27.1966 109.012 27.5255 109.212 27.9402L108.289 28.2298C108.146 27.9652 107.946 27.7614 107.689 27.6184C107.431 27.4683 107.145 27.3932 106.831 27.3932C106.487 27.3932 106.173 27.4826 105.887 27.6613C105.608 27.8401 105.386 28.0868 105.222 28.4014C105.057 28.7089 104.975 29.0628 104.975 29.4633C104.975 29.8566 105.057 30.2141 105.222 30.5359C105.393 30.8505 105.619 31.1007 105.897 31.2867C106.183 31.4726 106.498 31.5655 106.841 31.5655C107.063 31.5655 107.274 31.5262 107.474 31.4475C107.682 31.3689 107.86 31.2652 108.01 31.1365C108.168 31.0006 108.275 30.8541 108.332 30.6967L109.255 30.9756C109.14 31.2473 108.965 31.4905 108.729 31.705C108.5 31.9123 108.225 32.0768 107.903 32.1984C107.589 32.3199 107.242 32.3807 106.863 32.3807ZM111.472 32.2734V27.5112H109.541V26.6746H114.346V27.5112H112.416V32.2734H111.472ZM115.069 32.2734V26.6746H117.965C118.301 26.6746 118.58 26.7425 118.802 26.8784C119.023 27.0071 119.188 27.1751 119.295 27.3825C119.41 27.5898 119.467 27.8115 119.467 28.0475C119.467 28.3478 119.395 28.6195 119.252 28.8626C119.109 29.0986 118.902 29.2774 118.63 29.3989C118.952 29.4919 119.213 29.6599 119.413 29.903C119.613 30.139 119.713 30.4322 119.713 30.7825C119.713 31.0972 119.638 31.3653 119.488 31.587C119.338 31.8087 119.127 31.9803 118.855 32.1018C118.584 32.2162 118.269 32.2734 117.912 32.2734H115.069ZM115.97 31.6084H117.89C118.062 31.6084 118.215 31.5655 118.351 31.4797C118.494 31.3939 118.605 31.2795 118.684 31.1365C118.762 30.9935 118.802 30.8433 118.802 30.686C118.802 30.5144 118.762 30.3607 118.684 30.2248C118.612 30.0818 118.509 29.971 118.373 29.8923C118.244 29.8065 118.094 29.7636 117.922 29.7636H115.97V31.6084ZM115.97 29.1415H117.718C117.89 29.1415 118.04 29.0986 118.169 29.0128C118.298 28.9198 118.398 28.8018 118.469 28.6588C118.541 28.5158 118.577 28.3657 118.577 28.2084C118.577 27.9724 118.498 27.7686 118.341 27.597C118.19 27.4254 117.994 27.3396 117.751 27.3396H115.97V29.1415ZM123.145 32.3807C122.723 32.3807 122.341 32.3056 121.997 32.1555C121.654 31.9981 121.358 31.7872 121.107 31.5226C120.857 31.2509 120.664 30.9399 120.528 30.5895C120.392 30.2391 120.324 29.8709 120.324 29.4847C120.324 29.0914 120.392 28.7196 120.528 28.3692C120.664 28.0189 120.857 27.7114 121.107 27.4468C121.358 27.1751 121.654 26.9642 121.997 26.814C122.348 26.6567 122.734 26.578 123.156 26.578C123.571 26.578 123.95 26.6567 124.293 26.814C124.636 26.9642 124.933 27.1751 125.183 27.4468C125.44 27.7114 125.637 28.0189 125.773 28.3692C125.909 28.7196 125.977 29.0914 125.977 29.4847C125.977 29.8709 125.909 30.2391 125.773 30.5895C125.637 30.9399 125.444 31.2509 125.194 31.5226C124.944 31.7872 124.643 31.9981 124.293 32.1555C123.95 32.3056 123.567 32.3807 123.145 32.3807ZM121.29 29.4955C121.29 29.8816 121.372 30.232 121.536 30.5466C121.708 30.8612 121.933 31.1115 122.212 31.2974C122.491 31.4762 122.802 31.5655 123.145 31.5655C123.488 31.5655 123.799 31.4726 124.078 31.2867C124.364 31.1007 124.59 30.8505 124.754 30.5359C124.926 30.2141 125.011 29.8601 125.011 29.474C125.011 29.0879 124.926 28.7375 124.754 28.4229C124.59 28.1082 124.364 27.858 124.078 27.6721C123.799 27.4861 123.488 27.3932 123.145 27.3932C122.802 27.3932 122.491 27.4897 122.212 27.6828C121.933 27.8687 121.708 28.119 121.536 28.4336C121.372 28.7482 121.29 29.1022 121.29 29.4955ZM129.394 32.2734V26.6746H130.37L132.45 30.3428L134.542 26.6746H135.497V32.2734H134.596V28.0367L132.751 31.2759H132.15L130.295 28.0367V32.2734H129.394ZM139.282 32.3807C138.861 32.3807 138.474 32.3056 138.124 32.1555C137.781 31.9981 137.48 31.7872 137.223 31.5226C136.973 31.2509 136.776 30.9399 136.633 30.5895C136.497 30.2391 136.429 29.8673 136.429 29.474C136.429 28.9449 136.551 28.4622 136.794 28.026C137.037 27.5898 137.373 27.2395 137.802 26.9749C138.238 26.7103 138.735 26.578 139.293 26.578C139.858 26.578 140.348 26.7139 140.763 26.9856C141.184 27.2502 141.51 27.6006 141.739 28.0367C141.975 28.4658 142.093 28.9306 142.093 29.4311C142.093 29.5026 142.089 29.5741 142.082 29.6456C142.082 29.71 142.078 29.76 142.071 29.7958H137.427C137.455 30.1605 137.556 30.4858 137.727 30.7718C137.906 31.0507 138.135 31.2724 138.414 31.4368C138.692 31.5941 138.993 31.6728 139.315 31.6728C139.658 31.6728 139.98 31.587 140.28 31.4154C140.587 31.2438 140.798 31.0185 140.913 30.7396L141.728 30.9649C141.606 31.2366 141.424 31.4797 141.181 31.6942C140.945 31.9088 140.662 32.0768 140.334 32.1984C140.012 32.3199 139.661 32.3807 139.282 32.3807ZM137.395 29.1415H141.213C141.184 28.7768 141.081 28.455 140.902 28.1762C140.723 27.8973 140.494 27.6792 140.216 27.5219C139.937 27.3646 139.629 27.2859 139.293 27.2859C138.964 27.2859 138.66 27.3646 138.381 27.5219C138.103 27.6792 137.874 27.8973 137.695 28.1762C137.523 28.455 137.423 28.7768 137.395 29.1415ZM145.566 32.3807C144.643 32.3807 143.946 32.1018 143.474 31.5441C143.002 30.9863 142.766 30.1998 142.766 29.1844C142.766 28.4908 142.824 27.908 142.938 27.4361C143.052 26.957 143.224 26.5637 143.453 26.2563C143.682 25.9416 143.964 25.6878 144.3 25.4947C144.636 25.2945 145.022 25.13 145.459 25.0013L147.829 24.2827L147.883 25.0979L145.577 25.795C145.183 25.9238 144.854 26.0882 144.59 26.2884C144.325 26.4886 144.118 26.7461 143.968 27.0607C143.817 27.3753 143.717 27.7793 143.667 28.2727C143.853 27.8937 144.132 27.6006 144.504 27.3932C144.876 27.1787 145.308 27.0714 145.802 27.0714C146.331 27.0714 146.785 27.1822 147.164 27.4039C147.55 27.6184 147.843 27.9223 148.043 28.3156C148.251 28.7017 148.355 29.1486 148.355 29.6563C148.355 30.1998 148.247 30.6753 148.033 31.0829C147.818 31.4905 147.504 31.8087 147.089 32.0375C146.674 32.2663 146.166 32.3807 145.566 32.3807ZM145.566 31.5655C146.145 31.5655 146.592 31.3975 146.907 31.0614C147.228 30.7182 147.389 30.2641 147.389 29.6992C147.389 29.1486 147.232 28.7017 146.917 28.3585C146.603 28.0153 146.152 27.8437 145.566 27.8437C145.223 27.8437 144.912 27.9152 144.633 28.0582C144.361 28.2012 144.143 28.4121 143.978 28.691C143.821 28.9627 143.742 29.2988 143.742 29.6992C143.742 30.0568 143.81 30.3785 143.946 30.6646C144.089 30.9434 144.297 31.1651 144.568 31.3296C144.84 31.4869 145.173 31.5655 145.566 31.5655ZM151.768 32.3807C151.346 32.3807 150.96 32.3056 150.61 32.1555C150.267 31.9981 149.966 31.7872 149.709 31.5226C149.459 31.2509 149.262 30.9399 149.119 30.5895C148.983 30.2391 148.915 29.8673 148.915 29.474C148.915 28.9449 149.037 28.4622 149.28 28.026C149.523 27.5898 149.859 27.2395 150.288 26.9749C150.724 26.7103 151.221 26.578 151.779 26.578C152.344 26.578 152.834 26.7139 153.249 26.9856C153.67 27.2502 153.996 27.6006 154.225 28.0367C154.461 28.4658 154.579 28.9306 154.579 29.4311C154.579 29.5026 154.575 29.5741 154.568 29.6456C154.568 29.71 154.564 29.76 154.557 29.7958H149.913C149.941 30.1605 150.041 30.4858 150.213 30.7718C150.392 31.0507 150.621 31.2724 150.9 31.4368C151.178 31.5941 151.479 31.6728 151.801 31.6728C152.144 31.6728 152.466 31.587 152.766 31.4154C153.073 31.2438 153.284 31.0185 153.399 30.7396L154.214 30.9649C154.092 31.2366 153.91 31.4797 153.667 31.6942C153.431 31.9088 153.148 32.0768 152.819 32.1984C152.498 32.3199 152.147 32.3807 151.768 32.3807ZM149.881 29.1415H153.699C153.67 28.7768 153.567 28.455 153.388 28.1762C153.209 27.8973 152.98 27.6792 152.701 27.5219C152.423 27.3646 152.115 27.2859 151.779 27.2859C151.45 27.2859 151.146 27.3646 150.867 27.5219C150.589 27.6792 150.36 27.8973 150.181 28.1762C150.009 28.455 149.909 28.7768 149.881 29.1415ZM154.92 32.3163V31.469C155.106 31.469 155.27 31.4225 155.413 31.3296C155.563 31.2295 155.696 31.065 155.81 30.8362C155.924 30.6002 156.014 30.2784 156.078 29.8709C156.15 29.4561 156.196 28.9306 156.218 28.2942L156.282 26.6746H160.09V32.2734H159.146V27.5112H157.119L157.097 28.38C157.069 29.1451 157.004 29.7815 156.904 30.2892C156.804 30.7969 156.665 31.1973 156.486 31.4905C156.307 31.7836 156.085 31.9946 155.821 32.1233C155.563 32.252 155.263 32.3163 154.92 32.3163ZM161.389 32.2734V26.6853H162.333V31.0078L165.465 26.6746H166.323V32.2734H165.379V28.0367L162.29 32.2734H161.389Z" fill="white"/>
<path d="M25.1102 22.1793L27.839 17.4574L29.239 19.8777L26.4865 24.5759L25.1102 22.1793ZM20.9103 21.8708L23.6391 17.1489L27.2695 17.1489L24.5408 21.8471L20.9103 21.8708ZM13.863 10.2914L19.2968 10.2676L23.0933 16.8404L20.3408 21.5386L13.863 10.2914ZM39.3236 21.7997L40.9846 18.976L42.5981 21.7997L39.3236 21.7997ZM8.59524 6.58973L11.324 1.8915L40.3914 1.82031L37.6626 6.51854L8.59524 6.58973ZM38.2321 6.85074L40.9608 2.12878L51.1641 19.8065L48.4353 24.5284L38.2321 6.85074ZM8.57151 7.25413C18.2685 7.20667 27.9656 7.17503 37.6626 7.15921L47.8658 24.8369L40.7235 24.8606L39.3236 22.4641L43.1676 22.4403C43.2783 22.4403 43.3653 22.385 43.4286 22.2742C43.4602 22.2268 43.476 22.1714 43.476 22.1081C43.476 22.0607 41.1111 17.9398 36.3812 9.74561C36.318 9.63488 36.2231 9.57951 36.0965 9.57951L13.2935 9.6507C13.1669 9.6507 13.072 9.70606 13.0087 9.8168C12.9771 9.86425 12.9613 9.91171 12.9613 9.95917C12.9613 9.9908 12.9613 10.0145 12.9613 10.0304C12.9771 10.062 15.3499 14.167 20.0798 22.3454C20.1273 22.4403 20.2064 22.4957 20.3171 22.5115L24.5408 22.4878L25.9407 24.9081L18.7985 24.9318L8.57151 7.25413Z" fill="#9DB0A5"/>
<path d="M26.0538 11.5004L23.3251 16.2223L21.9251 13.802L24.6776 9.10381L26.0538 11.5004ZM30.2538 11.8088L27.525 16.5308L23.8945 16.5308L26.6233 11.8326L30.2538 11.8088ZM37.3011 23.3883L31.8673 23.4121L28.0707 16.8393L30.8232 12.141L37.3011 23.3883ZM11.8405 11.88L10.1795 14.7037L8.56597 11.88L11.8405 11.88ZM42.5688 27.09L39.84 31.7882L10.7727 31.8594L13.5015 27.1611L42.5688 27.09ZM12.932 26.8289L10.2032 31.5509L1.35792e-06 13.8732L2.72877 9.15126L12.932 26.8289ZM42.5925 26.4256C32.8955 26.473 23.1985 26.5047 13.5015 26.5205L3.29825 8.84279L10.4405 8.81906L11.8405 11.2156L7.99649 11.2394C7.88575 11.2394 7.79875 11.2947 7.73547 11.4055C7.70383 11.4529 7.68802 11.5083 7.68802 11.5716C7.68802 11.619 10.0529 15.7399 14.7828 23.9341C14.8461 24.0448 14.941 24.1002 15.0676 24.1002L37.8706 24.029C37.9971 24.029 38.0921 23.9736 38.1553 23.8629C38.187 23.8154 38.2028 23.768 38.2028 23.7205C38.2028 23.6889 38.2028 23.6652 38.2028 23.6493C38.187 23.6177 35.8141 19.5127 31.0843 11.3343C31.0368 11.2394 30.9577 11.184 30.847 11.1682L26.6233 11.1919L25.2233 8.77161L32.3656 8.74788L42.5925 26.4256Z" fill="#9DB0A5"/>
</svg>
