<svg width="182" height="35" viewBox="0 0 182 35" fill="none" xmlns="http://www.w3.org/2000/svg">
<path d="M69.6369 21.0221C68.7076 20.9189 68.0364 20.705 67.6233 20.3804C67.225 20.0559 66.9964 19.5322 66.9374 18.8094C66.3768 19.5912 65.6835 20.1887 64.8574 20.6017C64.0461 21.0148 63.1094 21.2213 62.0473 21.2213C61.2064 21.2213 60.4393 21.1549 59.746 21.0221C59.0674 20.8894 58.4995 20.6607 58.0422 20.3362C57.5997 19.9969 57.2751 19.547 57.0686 18.9864C56.8768 18.4111 56.84 17.6957 56.958 16.8401C57.0907 15.8665 57.3415 15.0625 57.7103 14.4282C58.0791 13.7939 58.5364 13.2923 59.0822 12.9235C59.6428 12.54 60.2844 12.2745 61.0073 12.127C61.7301 11.9794 62.5119 11.9057 63.3528 11.9057H66.8489C66.9079 11.1976 66.9005 10.6444 66.8267 10.2461C66.7677 9.83309 66.6276 9.53069 66.4063 9.33892C66.1851 9.1324 65.8753 9.00701 65.477 8.96275C65.0787 8.90375 64.5771 8.87424 63.9723 8.87424C63.5298 8.87424 63.0872 8.90375 62.6447 8.96275C62.2021 9.02176 61.7891 9.09552 61.4056 9.18403C61.022 9.27254 60.668 9.36842 60.3435 9.47168C60.0189 9.56019 59.746 9.64132 59.5247 9.71508L59.1265 7.43597C59.7755 7.14094 60.55 6.91229 61.4498 6.75002C62.3497 6.58776 63.3159 6.50662 64.3485 6.50662C65.5434 6.50662 66.5243 6.59513 67.2914 6.77215C68.0733 6.94917 68.6707 7.29583 69.0837 7.81213C69.4968 8.32844 69.7328 9.06601 69.7918 10.0249C69.8656 10.9837 69.7918 12.245 69.5705 13.8086L69.5263 14.1627L69.1722 16.6409C69.069 17.3637 69.0985 17.8727 69.2608 18.1677C69.423 18.4627 69.7402 18.6471 70.2122 18.7209L69.6369 21.0221ZM66.5391 14.2954H63.0209C62.5931 14.2954 62.2021 14.3249 61.8481 14.3839C61.4941 14.4282 61.1769 14.5388 60.8966 14.7158C60.6164 14.8929 60.3803 15.151 60.1886 15.4903C59.9968 15.8148 59.864 16.2648 59.7903 16.8401C59.7313 17.2826 59.7534 17.6367 59.8567 17.9022C59.9599 18.1677 60.1296 18.3669 60.3656 18.4996C60.6016 18.6324 60.8893 18.7209 61.2285 18.7651C61.5826 18.8094 61.9735 18.8315 62.4013 18.8315C63.1536 18.8315 63.7732 18.7356 64.26 18.5439C64.7468 18.3521 65.1377 18.0644 65.4327 17.6809C65.7425 17.2974 65.9785 16.8327 66.1408 16.2869C66.3031 15.7263 66.4358 15.0773 66.5391 14.3397V14.2954ZM81.434 21L83.0715 9.20615H78.8673L77.4069 16.5524C77.2299 17.526 76.9865 18.3152 76.6767 18.92C76.3816 19.5248 75.9834 19.9969 75.4818 20.3362C74.995 20.6607 74.3902 20.882 73.6674 21C72.9445 21.1033 72.0742 21.1549 71.0563 21.1549L71.4989 18.8758C71.9414 18.8758 72.325 18.861 72.6495 18.8315C72.974 18.7873 73.2543 18.6988 73.4903 18.566C73.7264 18.4185 73.9255 18.1972 74.0878 17.9022C74.2501 17.5924 74.3828 17.172 74.4861 16.6409L76.5439 6.79428H86.3242L84.3327 21H81.434ZM96.3254 16.3754C96.3991 15.8738 96.4065 15.4829 96.3475 15.2026C96.3032 14.9224 96.1926 14.7158 96.0156 14.5831C95.8386 14.4356 95.5878 14.3471 95.2633 14.3176C94.9535 14.2881 94.5699 14.2733 94.1126 14.2733H91.2582L90.6608 18.6324H93.5152C93.9725 18.6324 94.3634 18.6176 94.6879 18.5881C95.0125 18.5586 95.278 18.4775 95.4845 18.3447C95.7058 18.1972 95.8754 17.9833 95.9935 17.703C96.1262 17.408 96.2295 17.0097 96.3032 16.5082L96.3254 16.3754ZM87.4081 21L89.3995 6.79428H92.3203L91.5901 11.9057H94.4003C95.4476 11.9057 96.318 11.9647 97.0113 12.0827C97.7046 12.186 98.2431 12.3999 98.6266 12.7244C99.0101 13.0342 99.2462 13.4915 99.3347 14.0963C99.4379 14.6863 99.4232 15.4682 99.2904 16.4418C99.1577 17.4154 98.9585 18.2046 98.693 18.8094C98.4275 19.3995 98.0587 19.8568 97.5866 20.1813C97.1146 20.5058 96.5171 20.7271 95.7943 20.8451C95.0715 20.9484 94.1864 21 93.139 21H87.4081ZM108.666 21L109.374 15.8886H107.626L104.683 18.9422C104.152 19.488 103.665 19.9158 103.223 20.2255C102.78 20.5206 102.352 20.7345 101.939 20.8672C101.541 21 101.135 21.0664 100.722 21.0664C100.324 21.0664 99.9034 21.0443 99.4609 21L99.5051 18.9422C99.6526 18.9422 99.8149 18.9495 99.9919 18.9643C100.184 18.979 100.368 18.9864 100.545 18.9864C100.737 18.9717 100.914 18.9422 101.076 18.8979C101.238 18.8537 101.371 18.7799 101.474 18.6766L104.329 15.778C103.724 15.7042 103.223 15.5788 102.824 15.4018C102.441 15.2248 102.138 14.9666 101.917 14.6273C101.71 14.2733 101.585 13.8381 101.541 13.3218C101.511 12.7908 101.556 12.1343 101.674 11.3525C101.806 10.3789 102.006 9.59707 102.271 9.00701C102.537 8.4022 102.905 7.93752 103.377 7.61299C103.864 7.28845 104.469 7.07456 105.192 6.9713C105.915 6.85329 106.8 6.79428 107.847 6.79428H113.578L111.587 21H108.666ZM104.639 11.4189C104.565 11.9204 104.55 12.3114 104.594 12.5916C104.653 12.8719 104.771 13.0858 104.948 13.2333C105.125 13.3661 105.369 13.4472 105.679 13.4767C105.988 13.5062 106.379 13.521 106.851 13.521H109.706L110.325 9.1619H107.471C106.999 9.1619 106.601 9.17665 106.276 9.20615C105.966 9.23566 105.701 9.32417 105.479 9.47168C105.258 9.60444 105.081 9.81834 104.948 10.1134C104.83 10.3937 104.735 10.7846 104.661 11.2861L104.639 11.4189ZM123.158 21L124.043 14.6495H118.29L117.405 21H114.506L116.498 6.79428H119.396L118.622 12.2376H124.375L125.149 6.79428H128.048L126.057 21H123.158ZM141.052 20.3141C140.388 20.6091 139.591 20.8451 138.662 21.0221C137.732 21.1991 136.751 21.2877 135.719 21.2877C134.627 21.2877 133.654 21.1918 132.798 21C131.957 20.823 131.257 20.4689 130.696 19.9379C130.15 19.4068 129.774 18.6619 129.567 17.703C129.376 16.7294 129.39 15.4608 129.612 13.8971C129.833 12.3335 130.18 11.0722 130.652 10.1134C131.124 9.13977 131.706 8.38744 132.4 7.85639C133.093 7.32533 133.89 6.9713 134.79 6.79428C135.704 6.60251 136.707 6.50662 137.799 6.50662C139.879 6.50662 141.494 6.80165 142.645 7.39172L141.583 9.67083C141.184 9.53806 140.631 9.3758 139.923 9.18403C139.215 8.9775 138.411 8.87424 137.511 8.87424C136.906 8.87424 136.338 8.9185 135.807 9.00701C135.276 9.09552 134.797 9.30941 134.369 9.6487C133.956 9.98798 133.595 10.4969 133.285 11.1755C132.975 11.8393 132.739 12.7465 132.577 13.8971C132.415 15.0625 132.392 15.9845 132.51 16.6631C132.628 17.3269 132.85 17.8284 133.174 18.1677C133.514 18.4922 133.934 18.6988 134.435 18.7873C134.937 18.8758 135.49 18.92 136.095 18.92C136.538 18.92 136.98 18.8905 137.423 18.8315C137.88 18.7578 138.308 18.6766 138.706 18.5881C139.104 18.4996 139.466 18.4037 139.79 18.3005C140.13 18.1972 140.41 18.1087 140.631 18.0349L141.052 20.3141ZM143.627 16.995L143.937 14.7158H149.336L149.026 16.995H143.627ZM163.525 20.3141C162.862 20.6091 162.065 20.8451 161.136 21.0221C160.206 21.1991 159.225 21.2877 158.193 21.2877C157.101 21.2877 156.128 21.1918 155.272 21C154.431 20.823 153.73 20.4689 153.17 19.9379C152.624 19.4068 152.248 18.6619 152.041 17.703C151.85 16.7294 151.864 15.4608 152.086 13.8971C152.307 12.3335 152.654 11.0722 153.126 10.1134C153.598 9.13977 154.18 8.38744 154.874 7.85639C155.567 7.32533 156.364 6.9713 157.263 6.79428C158.178 6.60251 159.181 6.50662 160.273 6.50662C162.353 6.50662 163.968 6.80165 165.119 7.39172L164.056 9.67083C163.658 9.53806 163.105 9.3758 162.397 9.18403C161.689 8.9775 160.885 8.87424 159.985 8.87424C159.38 8.87424 158.812 8.9185 158.281 9.00701C157.75 9.09552 157.271 9.30941 156.843 9.6487C156.43 9.98798 156.069 10.4969 155.759 11.1755C155.449 11.8393 155.213 12.7465 155.051 13.8971C154.888 15.0625 154.866 15.9845 154.984 16.6631C155.102 17.3269 155.324 17.8284 155.648 18.1677C155.987 18.4922 156.408 18.6988 156.909 18.7873C157.411 18.8758 157.964 18.92 158.569 18.92C159.011 18.92 159.454 18.8905 159.897 18.8315C160.354 18.7578 160.782 18.6766 161.18 18.5881C161.578 18.4996 161.94 18.4037 162.264 18.3005C162.603 18.1972 162.884 18.1087 163.105 18.0349L163.525 20.3141Z" fill="#0D242C"/>
<path d="M61.3142 32.2734H60.3918V27.4897H57.721V32.2734H56.7986V26.6746H61.3142V32.2734ZM65.6837 32.3807C65.2189 32.3807 64.8078 32.2663 64.4502 32.0375C64.0998 31.8087 63.821 31.5191 63.6136 31.1687V34.558H62.6697V26.6746H63.5064V27.7257C63.728 27.3825 64.014 27.1072 64.3644 26.8998C64.7219 26.6853 65.1152 26.578 65.5443 26.578C65.9304 26.578 66.2843 26.6567 66.6061 26.814C66.9279 26.9713 67.2068 27.1858 67.4427 27.4575C67.6787 27.7221 67.861 28.0296 67.9897 28.38C68.1256 28.7303 68.1935 29.095 68.1935 29.474C68.1935 29.8744 68.1328 30.2534 68.0112 30.6109C67.8896 30.9613 67.718 31.2688 67.4964 31.5334C67.2747 31.7908 67.0101 31.9981 66.7026 32.1555C66.3952 32.3056 66.0555 32.3807 65.6837 32.3807ZM65.3941 31.5655C65.673 31.5655 65.9232 31.5083 66.1449 31.3939C66.3737 31.2724 66.5668 31.115 66.7241 30.922C66.8886 30.7218 67.0137 30.4965 67.0995 30.2463C67.1853 29.996 67.2282 29.7386 67.2282 29.474C67.2282 29.1951 67.1782 28.9306 67.078 28.6803C66.9779 28.4229 66.8421 28.2012 66.6705 28.0153C66.4989 27.8222 66.2951 27.6721 66.0591 27.5648C65.8303 27.4504 65.58 27.3932 65.3083 27.3932C65.1367 27.3932 64.9579 27.4289 64.772 27.5004C64.5932 27.5648 64.4216 27.6542 64.2572 27.7686C64.0998 27.8759 63.9604 28.0081 63.8389 28.1654C63.7244 28.3156 63.6494 28.4765 63.6136 28.6481V30.2463C63.6923 30.4322 63.7924 30.6074 63.9139 30.7718C64.0355 30.9291 64.1749 31.0686 64.3322 31.1901C64.4896 31.3045 64.6576 31.3975 64.8364 31.469C65.0151 31.5334 65.201 31.5655 65.3941 31.5655ZM71.5829 32.3807C71.161 32.3807 70.7749 32.302 70.4245 32.1447C70.0813 31.9874 69.7845 31.7765 69.5343 31.5119C69.2911 31.2473 69.1017 30.9399 68.9658 30.5895C68.8299 30.2391 68.762 29.8709 68.762 29.4847C68.762 29.0914 68.8299 28.7196 68.9658 28.3692C69.1088 28.0189 69.3019 27.7114 69.545 27.4468C69.7953 27.1822 70.092 26.9713 70.4352 26.814C70.7856 26.6567 71.1682 26.578 71.5829 26.578C71.9976 26.578 72.3802 26.6567 72.7306 26.814C73.0809 26.9713 73.3777 27.1822 73.6208 27.4468C73.8711 27.7114 74.0641 28.0189 74.2 28.3692C74.343 28.7196 74.4145 29.0914 74.4145 29.4847C74.4145 29.8709 74.3466 30.2391 74.2107 30.5895C74.0749 30.9399 73.8818 31.2473 73.6315 31.5119C73.3813 31.7765 73.0809 31.9874 72.7306 32.1447C72.3873 32.302 72.0048 32.3807 71.5829 32.3807ZM69.7273 29.4955C69.7273 29.7886 69.7738 30.0603 69.8668 30.3106C69.9669 30.5609 70.0992 30.779 70.2636 30.9649C70.4352 31.1508 70.6319 31.2974 70.8535 31.4046C71.0824 31.5119 71.3255 31.5655 71.5829 31.5655C71.8403 31.5655 72.0799 31.5119 72.3015 31.4046C72.5303 31.2974 72.7306 31.1508 72.9022 30.9649C73.0738 30.7718 73.2061 30.5502 73.299 30.2999C73.3991 30.0425 73.4492 29.7672 73.4492 29.474C73.4492 29.188 73.3991 28.9198 73.299 28.6696C73.2061 28.4121 73.0738 28.1905 72.9022 28.0046C72.7306 27.8115 72.5303 27.6613 72.3015 27.5541C72.0799 27.4468 71.8403 27.3932 71.5829 27.3932C71.3255 27.3932 71.0824 27.4504 70.8535 27.5648C70.6319 27.6721 70.4352 27.8222 70.2636 28.0153C70.0992 28.2012 69.9669 28.4229 69.8668 28.6803C69.7738 28.9306 69.7273 29.2023 69.7273 29.4955ZM76.2876 30.9434L79.3337 26.6746H80.0953V32.2734H79.1728V28.0904L76.1803 32.2734H75.3652V26.6746H76.2876V30.9434ZM81.1238 27.2538C81.5385 26.8033 82.0712 26.578 82.7219 26.578C83.2153 26.578 83.6121 26.7032 83.9125 26.9534C84.2128 27.1966 84.363 27.5255 84.363 27.9402C84.363 28.2691 84.2736 28.548 84.0948 28.7768C83.9232 28.9985 83.6872 29.1272 83.3869 29.163C83.7945 29.213 84.1127 29.3703 84.3415 29.6349C84.5775 29.8923 84.6955 30.2248 84.6955 30.6324C84.6955 30.8898 84.6454 31.1258 84.5453 31.3403C84.4523 31.5548 84.3165 31.7407 84.1377 31.898C83.9589 32.0482 83.7444 32.1662 83.4942 32.252C83.251 32.3378 82.9793 32.3807 82.679 32.3807C81.9639 32.3807 81.3883 32.109 80.9521 31.5655L81.4563 30.9113C81.6207 31.1401 81.8031 31.3081 82.0033 31.4154C82.2035 31.5155 82.4395 31.5655 82.7112 31.5655C83.0544 31.5655 83.319 31.4869 83.5049 31.3296C83.6908 31.1651 83.7838 30.9327 83.7838 30.6324C83.7838 30.2892 83.6622 30.0282 83.4191 29.8494C83.176 29.6635 82.822 29.5705 82.3572 29.5705H81.9818V28.8519H82.3572C82.7076 28.8519 82.9829 28.7768 83.1831 28.6267C83.3905 28.4765 83.4942 28.2727 83.4942 28.0153C83.4942 27.8008 83.4191 27.6327 83.2689 27.5112C83.1188 27.3825 82.915 27.3181 82.6575 27.3181C82.2857 27.3181 81.9282 27.4754 81.585 27.79L81.1238 27.2538ZM88.4833 26.6746C88.6836 26.6746 88.8695 26.7103 89.0411 26.7818C89.2127 26.8462 89.3629 26.9391 89.4916 27.0607C89.6203 27.1822 89.7204 27.3288 89.7919 27.5004C89.8634 27.6649 89.8992 27.8473 89.8992 28.0475C89.8992 28.169 89.8849 28.2942 89.8562 28.4229C89.8276 28.5444 89.7812 28.666 89.7168 28.7875C89.6596 28.902 89.581 29.0092 89.4808 29.1093C89.3807 29.2094 89.2592 29.2881 89.1162 29.3453C89.4236 29.4311 89.6668 29.592 89.8455 29.828C90.0243 30.0568 90.1137 30.3464 90.1137 30.6967C90.1137 30.9327 90.0708 31.1508 89.985 31.351C89.8992 31.5441 89.7776 31.7085 89.6203 31.8444C89.4701 31.9803 89.2878 32.0875 89.0733 32.1662C88.8659 32.2377 88.6335 32.2734 88.3761 32.2734H85.6625V26.6746H88.4833ZM88.1079 29.0664C88.3797 29.0664 88.5906 28.9913 88.7408 28.8412C88.8981 28.6839 88.9767 28.4693 88.9767 28.1976C88.9767 27.9688 88.916 27.7757 88.7944 27.6184C88.6728 27.454 88.469 27.3717 88.183 27.3717H86.5849V29.0664H88.1079ZM88.2688 31.5763C88.5548 31.5763 88.7801 31.4869 88.9446 31.3081C89.1162 31.1222 89.202 30.9041 89.202 30.6538C89.202 30.4179 89.1233 30.2105 88.966 30.0317C88.8087 29.853 88.5835 29.7636 88.2903 29.7636H86.5849V31.5763H88.2688ZM93.5067 32.3807C93.0848 32.3807 92.6987 32.302 92.3483 32.1447C92.0051 31.9874 91.7084 31.7765 91.4581 31.5119C91.215 31.2473 91.0255 30.9399 90.8896 30.5895C90.7538 30.2391 90.6858 29.8709 90.6858 29.4847C90.6858 29.0914 90.7538 28.7196 90.8896 28.3692C91.0326 28.0189 91.2257 27.7114 91.4688 27.4468C91.7191 27.1822 92.0158 26.9713 92.3591 26.814C92.7094 26.6567 93.092 26.578 93.5067 26.578C93.9214 26.578 94.304 26.6567 94.6544 26.814C95.0048 26.9713 95.3015 27.1822 95.5446 27.4468C95.7949 27.7114 95.988 28.0189 96.1238 28.3692C96.2668 28.7196 96.3383 29.0914 96.3383 29.4847C96.3383 29.8709 96.2704 30.2391 96.1345 30.5895C95.9987 30.9399 95.8056 31.2473 95.5553 31.5119C95.3051 31.7765 95.0048 31.9874 94.6544 32.1447C94.3111 32.302 93.9286 32.3807 93.5067 32.3807ZM91.6511 29.4955C91.6511 29.7886 91.6976 30.0603 91.7906 30.3106C91.8907 30.5609 92.023 30.779 92.1874 30.9649C92.3591 31.1508 92.5557 31.2974 92.7774 31.4046C93.0062 31.5119 93.2493 31.5655 93.5067 31.5655C93.7641 31.5655 94.0037 31.5119 94.2253 31.4046C94.4542 31.2974 94.6544 31.1508 94.826 30.9649C94.9976 30.7718 95.1299 30.5502 95.2228 30.2999C95.323 30.0425 95.373 29.7672 95.373 29.474C95.373 29.188 95.323 28.9198 95.2228 28.6696C95.1299 28.4121 94.9976 28.1905 94.826 28.0046C94.6544 27.8115 94.4542 27.6613 94.2253 27.5541C94.0037 27.4468 93.7641 27.3932 93.5067 27.3932C93.2493 27.3932 93.0062 27.4504 92.7774 27.5648C92.5557 27.6721 92.3591 27.8222 92.1874 28.0153C92.023 28.2012 91.8907 28.4229 91.7906 28.6803C91.6976 28.9306 91.6511 29.2023 91.6511 29.4955ZM96.521 31.4583H96.8428C97.0144 31.4154 97.1574 31.3367 97.2718 31.2223C97.3934 31.1079 97.4971 30.9327 97.5829 30.6967C97.6687 30.4536 97.7437 30.1354 97.8081 29.7421C97.8725 29.3417 97.9368 28.8412 98.0012 28.2405L98.1728 26.6746H101.659V31.4583H102.324V34.0325H101.509V32.2734H97.304V34.0325H96.521V31.4583ZM100.736 31.4583V27.4146H99.0416L98.8807 28.6267C98.7806 29.3989 98.6662 30.0103 98.5375 30.4608C98.4159 30.9041 98.2657 31.2366 98.087 31.4583H100.736ZM102.763 29.4633C102.763 29.07 102.831 28.6982 102.967 28.3478C103.103 27.9974 103.296 27.6935 103.546 27.4361C103.797 27.1715 104.093 26.9642 104.436 26.814C104.787 26.6567 105.177 26.578 105.606 26.578C106.163 26.578 106.642 26.7032 107.043 26.9534C107.45 27.1966 107.758 27.5255 107.965 27.9402L107.043 28.2298C106.9 27.9652 106.7 27.7614 106.442 27.6184C106.185 27.4683 105.899 27.3932 105.584 27.3932C105.327 27.3932 105.084 27.4468 104.855 27.5541C104.626 27.6542 104.429 27.7972 104.265 27.9831C104.1 28.169 103.968 28.3871 103.868 28.6374C103.775 28.8877 103.729 29.163 103.729 29.4633C103.729 29.7564 103.779 30.0317 103.879 30.2892C103.979 30.5466 104.111 30.7718 104.276 30.9649C104.447 31.1508 104.644 31.2974 104.866 31.4046C105.094 31.5119 105.337 31.5655 105.595 31.5655C105.759 31.5655 105.92 31.5441 106.078 31.5012C106.242 31.4511 106.389 31.3868 106.517 31.3081C106.653 31.2295 106.771 31.1401 106.871 31.04C106.971 30.9327 107.043 30.8183 107.086 30.6967L108.008 30.9756C107.922 31.183 107.801 31.3725 107.644 31.5441C107.493 31.7157 107.315 31.8623 107.107 31.9838C106.9 32.1054 106.667 32.2019 106.41 32.2734C106.16 32.3449 105.895 32.3807 105.616 32.3807C105.194 32.3807 104.808 32.302 104.458 32.1447C104.108 31.9874 103.807 31.7765 103.557 31.5119C103.307 31.2473 103.11 30.9399 102.967 30.5895C102.831 30.232 102.763 29.8566 102.763 29.4633ZM111.126 32.2734H110.204V27.4897H108.327V26.6746H113.003V27.4897H111.126V32.2734ZM116.634 26.6746C116.835 26.6746 117.021 26.7103 117.192 26.7818C117.364 26.8462 117.514 26.9391 117.643 27.0607C117.771 27.1822 117.871 27.3288 117.943 27.5004C118.014 27.6649 118.05 27.8473 118.05 28.0475C118.05 28.169 118.036 28.2942 118.007 28.4229C117.979 28.5444 117.932 28.666 117.868 28.7875C117.811 28.902 117.732 29.0092 117.632 29.1093C117.532 29.2094 117.41 29.2881 117.267 29.3453C117.575 29.4311 117.818 29.592 117.997 29.828C118.175 30.0568 118.265 30.3464 118.265 30.6967C118.265 30.9327 118.222 31.1508 118.136 31.351C118.05 31.5441 117.929 31.7085 117.771 31.8444C117.621 31.9803 117.439 32.0875 117.224 32.1662C117.017 32.2377 116.785 32.2734 116.527 32.2734H113.814V26.6746H116.634ZM116.259 29.0664C116.531 29.0664 116.742 28.9913 116.892 28.8412C117.049 28.6839 117.128 28.4693 117.128 28.1976C117.128 27.9688 117.067 27.7757 116.945 27.6184C116.824 27.454 116.62 27.3717 116.334 27.3717H114.736V29.0664H116.259ZM116.42 31.5763C116.706 31.5763 116.931 31.4869 117.096 31.3081C117.267 31.1222 117.353 30.9041 117.353 30.6538C117.353 30.4179 117.274 30.2105 117.117 30.0317C116.96 29.853 116.735 29.7636 116.441 29.7636H114.736V31.5763H116.42ZM121.658 32.3807C121.236 32.3807 120.85 32.302 120.499 32.1447C120.156 31.9874 119.859 31.7765 119.609 31.5119C119.366 31.2473 119.177 30.9399 119.041 30.5895C118.905 30.2391 118.837 29.8709 118.837 29.4847C118.837 29.0914 118.905 28.7196 119.041 28.3692C119.184 28.0189 119.377 27.7114 119.62 27.4468C119.87 27.1822 120.167 26.9713 120.51 26.814C120.861 26.6567 121.243 26.578 121.658 26.578C122.073 26.578 122.455 26.6567 122.805 26.814C123.156 26.9713 123.453 27.1822 123.696 27.4468C123.946 27.7114 124.139 28.0189 124.275 28.3692C124.418 28.7196 124.489 29.0914 124.489 29.4847C124.489 29.8709 124.421 30.2391 124.286 30.5895C124.15 30.9399 123.957 31.2473 123.706 31.5119C123.456 31.7765 123.156 31.9874 122.805 32.1447C122.462 32.302 122.08 32.3807 121.658 32.3807ZM119.802 29.4955C119.802 29.7886 119.849 30.0603 119.942 30.3106C120.042 30.5609 120.174 30.779 120.339 30.9649C120.51 31.1508 120.707 31.2974 120.928 31.4046C121.157 31.5119 121.4 31.5655 121.658 31.5655C121.915 31.5655 122.155 31.5119 122.376 31.4046C122.605 31.2974 122.805 31.1508 122.977 30.9649C123.149 30.7718 123.281 30.5502 123.374 30.2999C123.474 30.0425 123.524 29.7672 123.524 29.474C123.524 29.188 123.474 28.9198 123.374 28.6696C123.281 28.4121 123.149 28.1905 122.977 28.0046C122.805 27.8115 122.605 27.6613 122.376 27.5541C122.155 27.4468 121.915 27.3932 121.658 27.3932C121.4 27.3932 121.157 27.4504 120.928 27.5648C120.707 27.6721 120.51 27.8222 120.339 28.0153C120.174 28.2012 120.042 28.4229 119.942 28.6803C119.849 28.9306 119.802 29.2023 119.802 29.4955ZM130.781 30.2248L132.679 26.6746H133.612V32.2734H132.69V28.3263L131.049 31.3617H130.513L128.861 28.3263V32.2734H127.938V26.6746H128.882L130.781 30.2248ZM137.418 32.3807C136.996 32.3807 136.61 32.3056 136.26 32.1555C135.909 31.9981 135.609 31.7872 135.359 31.5226C135.108 31.2581 134.912 30.9506 134.769 30.6002C134.633 30.2427 134.565 29.8673 134.565 29.474C134.565 29.0807 134.633 28.7089 134.769 28.3585C134.912 28.0081 135.108 27.7007 135.359 27.4361C135.616 27.1715 135.92 26.9642 136.27 26.814C136.621 26.6567 137.007 26.578 137.429 26.578C137.851 26.578 138.233 26.6567 138.576 26.814C138.927 26.9713 139.223 27.1822 139.467 27.4468C139.71 27.7042 139.896 28.0081 140.024 28.3585C140.16 28.7017 140.228 29.0593 140.228 29.4311C140.228 29.5098 140.225 29.5813 140.217 29.6456C140.217 29.71 140.214 29.76 140.207 29.7958H135.562C135.584 30.0746 135.648 30.3285 135.755 30.5573C135.863 30.7861 136.002 30.9828 136.174 31.1472C136.345 31.3117 136.538 31.4404 136.753 31.5334C136.975 31.6263 137.207 31.6728 137.45 31.6728C137.622 31.6728 137.79 31.6513 137.954 31.6084C138.119 31.5584 138.272 31.494 138.415 31.4154C138.558 31.3367 138.684 31.2402 138.791 31.1258C138.905 31.0114 138.991 30.8827 139.048 30.7396L139.863 30.9649C139.77 31.1723 139.642 31.3617 139.477 31.5334C139.32 31.705 139.134 31.8551 138.92 31.9838C138.712 32.1054 138.48 32.2019 138.222 32.2734C137.965 32.3449 137.697 32.3807 137.418 32.3807ZM139.338 29.0986C139.316 28.834 139.248 28.5909 139.134 28.3692C139.027 28.1404 138.887 27.9474 138.716 27.79C138.551 27.6327 138.358 27.5112 138.137 27.4254C137.915 27.3324 137.679 27.2859 137.429 27.2859C137.178 27.2859 136.942 27.3324 136.721 27.4254C136.499 27.5112 136.302 27.6363 136.131 27.8008C135.966 27.9581 135.831 28.1476 135.723 28.3692C135.623 28.5909 135.562 28.834 135.541 29.0986H139.338ZM143.776 25.5591C143.219 25.7021 142.779 25.9488 142.457 26.2992C142.135 26.6495 141.924 27.1536 141.824 27.8115C142.075 27.5112 142.361 27.2859 142.682 27.1358C143.004 26.9785 143.351 26.8998 143.723 26.8998C144.08 26.8998 144.409 26.9713 144.71 27.1143C145.017 27.2502 145.282 27.4432 145.503 27.6935C145.725 27.9438 145.897 28.2405 146.018 28.5838C146.147 28.9198 146.211 29.2845 146.211 29.6778C146.211 30.0782 146.143 30.4465 146.007 30.7825C145.879 31.1115 145.696 31.3939 145.46 31.6299C145.224 31.8659 144.938 32.0518 144.602 32.1876C144.273 32.3163 143.905 32.3807 143.498 32.3807C142.639 32.3807 141.989 32.0804 141.545 31.4797C141.102 30.8791 140.88 30.0031 140.88 28.8519C140.88 27.6864 141.12 26.7711 141.599 26.1061C142.085 25.4339 142.79 24.9835 143.712 24.7546L145.482 24.3256L145.653 25.0979L143.776 25.5591ZM141.846 29.6134C141.846 29.8995 141.889 30.164 141.974 30.4071C142.06 30.6503 142.178 30.8612 142.328 31.04C142.486 31.2187 142.668 31.3582 142.875 31.4583C143.09 31.5584 143.322 31.6084 143.573 31.6084C143.816 31.6084 144.041 31.562 144.248 31.469C144.456 31.376 144.631 31.2473 144.774 31.0829C144.924 30.9113 145.039 30.7075 145.117 30.4715C145.203 30.2355 145.246 29.9781 145.246 29.6992C145.246 29.4132 145.203 29.1522 145.117 28.9163C145.031 28.6731 144.913 28.4658 144.763 28.2942C144.613 28.1225 144.431 27.9903 144.216 27.8973C144.002 27.8043 143.766 27.7579 143.508 27.7579C143.258 27.7579 143.029 27.8043 142.822 27.8973C142.622 27.9831 142.45 28.1082 142.307 28.2727C142.164 28.4372 142.05 28.6338 141.964 28.8626C141.885 29.0843 141.846 29.3346 141.846 29.6134ZM149.653 32.3807C149.231 32.3807 148.845 32.3056 148.494 32.1555C148.144 31.9981 147.843 31.7872 147.593 31.5226C147.343 31.2581 147.146 30.9506 147.003 30.6002C146.867 30.2427 146.799 29.8673 146.799 29.474C146.799 29.0807 146.867 28.7089 147.003 28.3585C147.146 28.0081 147.343 27.7007 147.593 27.4361C147.851 27.1715 148.154 26.9642 148.505 26.814C148.855 26.6567 149.241 26.578 149.663 26.578C150.085 26.578 150.468 26.6567 150.811 26.814C151.161 26.9713 151.458 27.1822 151.701 27.4468C151.944 27.7042 152.13 28.0081 152.259 28.3585C152.395 28.7017 152.463 29.0593 152.463 29.4311C152.463 29.5098 152.459 29.5813 152.452 29.6456C152.452 29.71 152.448 29.76 152.441 29.7958H147.797C147.818 30.0746 147.883 30.3285 147.99 30.5573C148.097 30.7861 148.237 30.9828 148.408 31.1472C148.58 31.3117 148.773 31.4404 148.988 31.5334C149.209 31.6263 149.442 31.6728 149.685 31.6728C149.856 31.6728 150.024 31.6513 150.189 31.6084C150.353 31.5584 150.507 31.494 150.65 31.4154C150.793 31.3367 150.918 31.2402 151.025 31.1258C151.14 31.0114 151.226 30.8827 151.283 30.7396L152.098 30.9649C152.005 31.1723 151.876 31.3617 151.712 31.5334C151.555 31.705 151.369 31.8551 151.154 31.9838C150.947 32.1054 150.714 32.2019 150.457 32.2734C150.2 32.3449 149.931 32.3807 149.653 32.3807ZM151.572 29.0986C151.551 28.834 151.483 28.5909 151.369 28.3692C151.261 28.1404 151.122 27.9474 150.95 27.79C150.786 27.6327 150.593 27.5112 150.371 27.4254C150.149 27.3324 149.914 27.2859 149.663 27.2859C149.413 27.2859 149.177 27.3324 148.955 27.4254C148.734 27.5112 148.537 27.6363 148.365 27.8008C148.201 27.9581 148.065 28.1476 147.958 28.3692C147.858 28.5909 147.797 28.834 147.775 29.0986H151.572ZM152.495 31.5012C152.724 31.4797 152.913 31.4261 153.063 31.3403C153.221 31.2473 153.349 31.0864 153.45 30.8576C153.557 30.6217 153.646 30.2963 153.718 29.8816C153.789 29.4597 153.861 28.9127 153.932 28.2405L154.104 26.6746H157.59V32.2734H156.667V27.4146H154.973L154.812 28.6267C154.712 29.356 154.604 29.9567 154.49 30.4286C154.383 30.8934 154.247 31.2652 154.082 31.5441C153.918 31.8158 153.721 32.0089 153.492 32.1233C153.264 32.2377 152.985 32.3056 152.656 32.3271L152.495 31.5012ZM159.861 30.9434L162.907 26.6746H163.669V32.2734H162.746V28.0904L159.754 32.2734H158.939V26.6746H159.861V30.9434Z" fill="#0D242C"/>
<path d="M25.1102 22.1793L27.839 17.4574L29.239 19.8777L26.4865 24.5759L25.1102 22.1793ZM20.9103 21.8708L23.6391 17.1489L27.2695 17.1489L24.5408 21.8471L20.9103 21.8708ZM13.863 10.2914L19.2968 10.2676L23.0933 16.8404L20.3408 21.5386L13.863 10.2914ZM39.3236 21.7997L40.9846 18.976L42.5981 21.7997L39.3236 21.7997ZM8.59524 6.58973L11.324 1.8915L40.3914 1.82031L37.6626 6.51854L8.59524 6.58973ZM38.2321 6.85074L40.9608 2.12878L51.1641 19.8065L48.4353 24.5284L38.2321 6.85074ZM8.57151 7.25413C18.2685 7.20667 27.9656 7.17503 37.6626 7.15921L47.8658 24.8369L40.7236 24.8606L39.3236 22.4641L43.1676 22.4403C43.2783 22.4403 43.3653 22.385 43.4286 22.2742C43.4602 22.2268 43.476 22.1714 43.476 22.1081C43.476 22.0607 41.1111 17.9398 36.3812 9.74561C36.318 9.63488 36.2231 9.57951 36.0965 9.57951L13.2935 9.6507C13.1669 9.6507 13.072 9.70606 13.0087 9.8168C12.9771 9.86425 12.9613 9.91171 12.9613 9.95917C12.9613 9.99081 12.9613 10.0145 12.9613 10.0304C12.9771 10.062 15.3499 14.167 20.0798 22.3454C20.1273 22.4403 20.2064 22.4957 20.3171 22.5115L24.5408 22.4878L25.9407 24.9081L18.7985 24.9318L8.57151 7.25413Z" fill="#9DB0A5"/>
<path d="M26.0538 11.5004L23.3251 16.2223L21.9251 13.802L24.6776 9.10381L26.0538 11.5004ZM30.2538 11.8088L27.525 16.5308L23.8945 16.5308L26.6233 11.8326L30.2538 11.8088ZM37.3011 23.3883L31.8673 23.4121L28.0707 16.8393L30.8232 12.141L37.3011 23.3883ZM11.8405 11.88L10.1795 14.7037L8.56597 11.88L11.8405 11.88ZM42.5688 27.09L39.84 31.7882L10.7727 31.8594L13.5015 27.1611L42.5688 27.09ZM12.932 26.8289L10.2032 31.5509L1.35792e-06 13.8732L2.72877 9.15126L12.932 26.8289ZM42.5925 26.4256C32.8955 26.473 23.1985 26.5047 13.5015 26.5205L3.29825 8.84279L10.4405 8.81906L11.8405 11.2156L7.99649 11.2394C7.88575 11.2394 7.79875 11.2947 7.73547 11.4055C7.70383 11.4529 7.68802 11.5083 7.68802 11.5716C7.68802 11.619 10.053 15.7399 14.7828 23.9341C14.8461 24.0448 14.941 24.1002 15.0676 24.1002L37.8706 24.029C37.9971 24.029 38.0921 23.9736 38.1553 23.8629C38.187 23.8154 38.2028 23.768 38.2028 23.7205C38.2028 23.6889 38.2028 23.6652 38.2028 23.6493C38.187 23.6177 35.8141 19.5127 31.0843 11.3343C31.0368 11.2394 30.9577 11.184 30.847 11.1682L26.6233 11.1919L25.2233 8.77161L32.3656 8.74788L42.5925 26.4256Z" fill="#9DB0A5"/>
</svg>
