<svg width="105" height="21" viewBox="0 0 105 21" fill="none" xmlns="http://www.w3.org/2000/svg">
<path d="M44.278 12.3166C43.687 12.2504 43.2601 12.1132 42.9975 11.905C42.7442 11.6968 42.5987 11.3609 42.5612 10.8973C42.2047 11.3988 41.7638 11.782 41.2385 12.0469C40.7225 12.3119 40.1268 12.4443 39.4513 12.4443C38.9166 12.4443 38.4288 12.4018 37.9878 12.3166C37.5563 12.2314 37.1951 12.0848 36.9043 11.8766C36.6228 11.659 36.4165 11.3704 36.2851 11.0108C36.1632 10.6418 36.1397 10.1829 36.2148 9.63408C36.2992 9.00958 36.4587 8.49389 36.6932 8.08702C36.9277 7.68015 37.2186 7.35844 37.5657 7.12189C37.9222 6.87587 38.3302 6.70555 38.7899 6.61093C39.2496 6.51631 39.7468 6.469 40.2816 6.469H42.5049C42.5425 6.01482 42.5378 5.65999 42.4909 5.40451C42.4533 5.13957 42.3642 4.9456 42.2235 4.82259C42.0828 4.69012 41.8858 4.60969 41.6325 4.5813C41.3792 4.54346 41.0602 4.52453 40.6756 4.52453C40.3941 4.52453 40.1127 4.54346 39.8313 4.5813C39.5498 4.61915 39.2871 4.66646 39.0432 4.72324C38.7993 4.78001 38.5742 4.84151 38.3678 4.90775C38.1614 4.96452 37.9878 5.01656 37.8471 5.06387L37.5938 3.60197C38.0066 3.41273 38.4991 3.26607 39.0714 3.16198C39.6436 3.0579 40.2581 3.00586 40.9148 3.00586C41.6747 3.00586 42.2985 3.06263 42.7864 3.17618C43.2836 3.28972 43.6635 3.51208 43.9262 3.84326C44.1889 4.17443 44.339 4.64754 44.3765 5.26258C44.4234 5.87762 44.3765 6.68663 44.2358 7.68961L44.2076 7.91671L43.9825 9.50634C43.9168 9.96999 43.9356 10.2964 44.0388 10.4857C44.142 10.6749 44.3437 10.7932 44.6439 10.8405L44.278 12.3166ZM42.3079 8.00186H40.0705C39.7984 8.00186 39.5498 8.02079 39.3247 8.05864C39.0995 8.08702 38.8978 8.15799 38.7196 8.27153C38.5413 8.38508 38.3912 8.55067 38.2693 8.7683C38.1473 8.97646 38.0629 9.26506 38.016 9.63408C37.9784 9.91794 37.9925 10.145 38.0582 10.3154C38.1239 10.4857 38.2317 10.6134 38.3818 10.6986C38.5319 10.7837 38.7149 10.8405 38.9307 10.8689C39.1558 10.8973 39.4044 10.9115 39.6765 10.9115C40.1549 10.9115 40.5489 10.85 40.8585 10.727C41.1681 10.6039 41.4167 10.4194 41.6043 10.1734C41.8013 9.92741 41.9514 9.62935 42.0546 9.27925C42.1578 8.91969 42.2423 8.50336 42.3079 8.03025V8.00186Z" fill="#0D242C"/>
<path d="M51.7805 12.3024L52.8218 4.73743H50.1481L49.2194 9.44957C49.1068 10.0741 48.952 10.5803 48.755 10.9682C48.5674 11.3562 48.3141 11.659 47.9951 11.8766C47.6855 12.0848 47.3009 12.2267 46.8412 12.3024C46.3815 12.3686 45.828 12.4018 45.1807 12.4018L45.4621 10.9399C45.7436 10.9399 45.9875 10.9304 46.1939 10.9115C46.4003 10.8831 46.5785 10.8263 46.7286 10.7412C46.8787 10.6465 47.0054 10.5046 47.1086 10.3154C47.2118 10.1166 47.2962 9.84698 47.3619 9.50634L48.6705 3.19037H54.8904L53.6239 12.3024H51.7805Z" fill="#0D242C"/>
<path d="M61.2507 9.33602C61.2976 9.01431 61.3023 8.76357 61.2647 8.58379C61.2366 8.404 61.1662 8.27153 61.0537 8.18638C60.9411 8.09175 60.7816 8.03498 60.5752 8.01606C60.3782 7.99713 60.1343 7.98767 59.8435 7.98767H58.0282L57.6482 10.7837H59.4635C59.7544 10.7837 60.003 10.7743 60.2093 10.7553C60.4157 10.7364 60.5846 10.6844 60.7159 10.5992C60.8567 10.5046 60.9645 10.3674 61.0396 10.1876C61.124 9.99837 61.1897 9.7429 61.2366 9.42118L61.2507 9.33602ZM55.5797 12.3024L56.8461 3.19037H58.7036L58.2393 6.469H60.0264C60.6925 6.469 61.246 6.50685 61.6869 6.58254C62.1278 6.64878 62.4702 6.78598 62.7142 6.99415C62.9581 7.19285 63.1082 7.48618 63.1645 7.87413C63.2301 8.25261 63.2207 8.7541 63.1363 9.3786C63.0519 10.0031 62.9252 10.5093 62.7564 10.8973C62.5875 11.2758 62.353 11.5691 62.0528 11.7773C61.7526 11.9854 61.3726 12.1274 60.9129 12.203C60.4533 12.2693 59.8904 12.3024 59.2243 12.3024H55.5797Z" fill="#0D242C"/>
<path d="M69.0987 12.3024L69.549 9.02377H68.4373L66.5657 10.9824C66.228 11.3325 65.9184 11.6069 65.6369 11.8056C65.3555 11.9949 65.0834 12.1321 64.8208 12.2172C64.5675 12.3024 64.3095 12.345 64.0468 12.345C63.7935 12.345 63.5262 12.3308 63.2447 12.3024L63.2729 10.9824C63.3667 10.9824 63.4699 10.9872 63.5824 10.9966C63.7044 11.0061 63.8217 11.0108 63.9342 11.0108C64.0562 11.0014 64.1688 10.9824 64.272 10.954C64.3752 10.9257 64.4596 10.8784 64.5253 10.8121L66.3405 8.95281C65.9559 8.9055 65.6369 8.82507 65.3836 8.71152C65.1397 8.59798 64.9474 8.43239 64.8067 8.21476C64.6754 7.98767 64.5956 7.70854 64.5675 7.37736C64.5487 7.03673 64.5769 6.61566 64.6519 6.11417C64.7363 5.48967 64.863 4.98818 65.0319 4.60969C65.2007 4.22174 65.4352 3.92369 65.7355 3.71552C66.045 3.50735 66.4297 3.37015 66.8894 3.30392C67.349 3.22822 67.9119 3.19037 68.578 3.19037H72.2226L70.9562 12.3024H69.0987ZM66.5376 6.15675C66.4906 6.47846 66.4813 6.72921 66.5094 6.90899C66.5469 7.08877 66.622 7.22597 66.7346 7.32059C66.8471 7.40575 67.0019 7.45779 67.1989 7.47672C67.3959 7.49564 67.6445 7.5051 67.9448 7.5051H69.76L70.154 4.70904H68.3388C68.0386 4.70904 67.7853 4.7185 67.5789 4.73743C67.3819 4.75635 67.213 4.81313 67.0723 4.90775C66.9316 4.99291 66.819 5.13011 66.7346 5.31935C66.6595 5.49913 66.5985 5.74988 66.5516 6.07159L66.5376 6.15675Z" fill="#0D242C"/>
<path d="M78.315 12.3024L78.8779 8.22895H75.2192L74.6563 12.3024H72.8129L74.0794 3.19037H75.9228L75.4303 6.6819H79.089L79.5815 3.19037H81.4249L80.1585 12.3024H78.315Z" fill="#0D242C"/>
<path d="M89.6945 11.8624C89.2724 12.0517 88.7658 12.203 88.1747 12.3166C87.5837 12.4301 86.9599 12.4869 86.3032 12.4869C85.609 12.4869 84.9898 12.4254 84.4457 12.3024C83.9109 12.1889 83.4653 11.9618 83.1088 11.6211C82.7617 11.2805 82.5225 10.8027 82.3912 10.1876C82.2692 9.56311 82.2786 8.74937 82.4193 7.74639C82.56 6.7434 82.7805 5.93439 83.0807 5.31935C83.3809 4.69485 83.7515 4.21228 84.1924 3.87164C84.6333 3.53101 85.1399 3.30392 85.7122 3.19037C86.2938 3.06736 86.9317 3.00586 87.6259 3.00586C88.9487 3.00586 89.976 3.1951 90.7077 3.57359L90.0322 5.03549C89.7789 4.95033 89.4272 4.84624 88.9769 4.72324C88.5266 4.59077 88.0153 4.52453 87.443 4.52453C87.0584 4.52453 86.6972 4.55292 86.3595 4.60969C86.0217 4.66646 85.7169 4.80366 85.4448 5.02129C85.1821 5.23892 84.9523 5.56537 84.7553 6.00062C84.5583 6.42642 84.4081 7.00834 84.305 7.74639C84.2018 8.49389 84.1877 9.08528 84.2627 9.52054C84.3378 9.94633 84.4785 10.268 84.6849 10.4857C84.9007 10.6938 85.168 10.8263 85.487 10.8831C85.806 10.9399 86.1578 10.9682 86.5424 10.9682C86.8238 10.9682 87.1053 10.9493 87.3867 10.9115C87.6775 10.8642 87.9496 10.8121 88.2029 10.7553C88.4562 10.6986 88.686 10.6371 88.8924 10.5708C89.1082 10.5046 89.2864 10.4478 89.4272 10.4005L89.6945 11.8624Z" fill="#0D242C"/>
<path d="M91.3324 9.73343L91.5294 8.27153H94.9629L94.7659 9.73343H91.3324Z" fill="#0D242C"/>
<path d="M103.987 11.8624C103.565 12.0517 103.058 12.203 102.467 12.3166C101.876 12.4301 101.252 12.4869 100.596 12.4869C99.9014 12.4869 99.2822 12.4254 98.7381 12.3024C98.2033 12.1889 97.7577 11.9618 97.4012 11.6211C97.0541 11.2805 96.8149 10.8027 96.6836 10.1876C96.5616 9.56311 96.571 8.74937 96.7117 7.74639C96.8524 6.7434 97.0729 5.93439 97.3731 5.31935C97.6733 4.69485 98.0439 4.21228 98.4848 3.87164C98.9257 3.53101 99.4323 3.30392 100.005 3.19037C100.586 3.06736 101.224 3.00586 101.918 3.00586C103.241 3.00586 104.268 3.1951 105 3.57359L104.325 5.03549C104.071 4.95033 103.72 4.84624 103.269 4.72324C102.819 4.59077 102.308 4.52453 101.735 4.52453C101.351 4.52453 100.99 4.55292 100.652 4.60969C100.314 4.66646 100.009 4.80366 99.7372 5.02129C99.4745 5.23892 99.2447 5.56537 99.0477 6.00062C98.8507 6.42642 98.7005 7.00834 98.5974 7.74639C98.4942 8.49389 98.4801 9.08528 98.5551 9.52054C98.6302 9.94633 98.7709 10.268 98.9773 10.4857C99.1931 10.6938 99.4604 10.8263 99.7794 10.8831C100.098 10.9399 100.45 10.9682 100.835 10.9682C101.116 10.9682 101.398 10.9493 101.679 10.9115C101.97 10.8642 102.242 10.8121 102.495 10.7553C102.749 10.6986 102.978 10.6371 103.185 10.5708C103.401 10.5046 103.579 10.4478 103.72 10.4005L103.987 11.8624Z" fill="#0D242C"/>
<path d="M38.9889 19.5355H38.4023V16.4671H36.7038V19.5355H36.1172V15.9442H38.9889V19.5355Z" fill="#0D242C"/>
<path d="M41.7677 19.6043C41.4721 19.6043 41.2106 19.5309 40.9833 19.3842C40.7604 19.2374 40.5831 19.0516 40.4512 18.8269V21.0009H39.851V15.9442H40.383V16.6184C40.524 16.3983 40.7059 16.2217 40.9287 16.0887C41.1561 15.9511 41.4062 15.8823 41.679 15.8823C41.9246 15.8823 42.1497 15.9327 42.3543 16.0336C42.559 16.1345 42.7363 16.2721 42.8864 16.4464C43.0364 16.6161 43.1524 16.8134 43.2343 17.0381C43.3207 17.2628 43.3639 17.4968 43.3639 17.7399C43.3639 17.9967 43.3252 18.2398 43.2479 18.4691C43.1706 18.6939 43.0614 18.8911 42.9205 19.0608C42.7795 19.2259 42.6113 19.3589 42.4157 19.4598C42.2202 19.5561 42.0042 19.6043 41.7677 19.6043ZM41.5835 19.0814C41.7609 19.0814 41.92 19.0447 42.061 18.9714C42.2065 18.8934 42.3293 18.7925 42.4294 18.6686C42.5339 18.5402 42.6135 18.3957 42.6681 18.2352C42.7227 18.0747 42.7499 17.9096 42.7499 17.7399C42.7499 17.561 42.7181 17.3913 42.6545 17.2307C42.5908 17.0656 42.5044 16.9234 42.3952 16.8042C42.2861 16.6803 42.1565 16.584 42.0064 16.5152C41.8609 16.4418 41.7018 16.4052 41.529 16.4052C41.4198 16.4052 41.3061 16.4281 41.1879 16.474C41.0742 16.5152 40.9651 16.5726 40.8605 16.6459C40.7604 16.7147 40.6718 16.7996 40.5945 16.9005C40.5217 16.9968 40.474 17.1 40.4512 17.2101V18.2352C40.5012 18.3545 40.5649 18.4668 40.6422 18.5723C40.7195 18.6732 40.8082 18.7627 40.9082 18.8406C41.0083 18.914 41.1151 18.9736 41.2288 19.0195C41.3425 19.0608 41.4608 19.0814 41.5835 19.0814Z" fill="#0D242C"/>
<path d="M45.5193 19.6043C45.251 19.6043 45.0055 19.5539 44.7826 19.4529C44.5644 19.352 44.3757 19.2167 44.2165 19.047C44.0619 18.8773 43.9414 18.6801 43.855 18.4554C43.7686 18.2306 43.7254 17.9944 43.7254 17.7467C43.7254 17.4945 43.7686 17.256 43.855 17.0312C43.9459 16.8065 44.0687 16.6093 44.2233 16.4396C44.3825 16.2698 44.5712 16.1345 44.7895 16.0336C45.0123 15.9327 45.2556 15.8823 45.5193 15.8823C45.7831 15.8823 46.0264 15.9327 46.2492 16.0336C46.472 16.1345 46.6607 16.2698 46.8153 16.4396C46.9745 16.6093 47.0973 16.8065 47.1837 17.0312C47.2746 17.256 47.3201 17.4945 47.3201 17.7467C47.3201 17.9944 47.2769 18.2306 47.1905 18.4554C47.1041 18.6801 46.9813 18.8773 46.8222 19.047C46.663 19.2167 46.472 19.352 46.2492 19.4529C46.0309 19.5539 45.7876 19.6043 45.5193 19.6043ZM44.3393 17.7536C44.3393 17.9417 44.3688 18.116 44.4279 18.2765C44.4916 18.437 44.5757 18.5769 44.6803 18.6962C44.7895 18.8154 44.9145 18.9094 45.0555 18.9782C45.201 19.047 45.3556 19.0814 45.5193 19.0814C45.683 19.0814 45.8354 19.047 45.9763 18.9782C46.1219 18.9094 46.2492 18.8154 46.3583 18.6962C46.4675 18.5723 46.5516 18.4301 46.6107 18.2696C46.6744 18.1045 46.7062 17.9279 46.7062 17.7399C46.7062 17.5564 46.6744 17.3844 46.6107 17.2239C46.5516 17.0587 46.4675 16.9166 46.3583 16.7973C46.2492 16.6735 46.1219 16.5771 45.9763 16.5084C45.8354 16.4396 45.683 16.4052 45.5193 16.4052C45.3556 16.4052 45.201 16.4418 45.0555 16.5152C44.9145 16.584 44.7895 16.6803 44.6803 16.8042C44.5757 16.9234 44.4916 17.0656 44.4279 17.2307C44.3688 17.3913 44.3393 17.5656 44.3393 17.7536Z" fill="#0D242C"/>
<path d="M48.5113 18.6824L50.4485 15.9442H50.9328V19.5355H50.3462V16.8523L48.4431 19.5355H47.9247V15.9442H48.5113V18.6824Z" fill="#0D242C"/>
<path d="M51.5869 16.3157C51.8506 16.0268 52.1894 15.8823 52.6032 15.8823C52.917 15.8823 53.1694 15.9625 53.3604 16.1231C53.5514 16.279 53.6469 16.49 53.6469 16.756C53.6469 16.967 53.59 17.1459 53.4764 17.2927C53.3672 17.4348 53.2172 17.5174 53.0262 17.5403C53.2854 17.5724 53.4877 17.6733 53.6332 17.8431C53.7833 18.0082 53.8583 18.2214 53.8583 18.4829C53.8583 18.648 53.8265 18.7994 53.7628 18.937C53.7037 19.0746 53.6173 19.1938 53.5036 19.2947C53.39 19.391 53.2535 19.4667 53.0944 19.5217C52.9398 19.5768 52.767 19.6043 52.576 19.6043C52.1212 19.6043 51.7552 19.43 51.4778 19.0814L51.7984 18.6618C51.9029 18.8085 52.0189 18.9163 52.1462 18.9851C52.2736 19.0493 52.4236 19.0814 52.5964 19.0814C52.8147 19.0814 52.983 19.031 53.1012 18.9301C53.2194 18.8246 53.2785 18.6755 53.2785 18.4829C53.2785 18.2627 53.2012 18.0953 53.0466 17.9806C52.892 17.8614 52.6669 17.8018 52.3713 17.8018H52.1326V17.3408H52.3713C52.5942 17.3408 52.7692 17.2927 52.8966 17.1963C53.0284 17.1 53.0944 16.9693 53.0944 16.8042C53.0944 16.6666 53.0466 16.5588 52.9511 16.4808C52.8556 16.3983 52.726 16.357 52.5623 16.357C52.3259 16.357 52.0985 16.4579 51.8802 16.6597L51.5869 16.3157Z" fill="#0D242C"/>
<path d="M56.2673 15.9442C56.3946 15.9442 56.5128 15.9671 56.622 16.013C56.7311 16.0543 56.8266 16.1139 56.9085 16.1919C56.9903 16.2698 57.054 16.3639 57.0994 16.474C57.1449 16.5794 57.1677 16.6964 57.1677 16.8248C57.1677 16.9028 57.1586 16.9831 57.1404 17.0656C57.1222 17.1436 57.0926 17.2216 57.0517 17.2995C57.0153 17.3729 56.9653 17.4417 56.9016 17.5059C56.838 17.5701 56.7607 17.6206 56.6697 17.6573C56.8653 17.7123 57.0199 17.8155 57.1336 17.9669C57.2472 18.1137 57.3041 18.2994 57.3041 18.5242C57.3041 18.6755 57.2768 18.8154 57.2222 18.9438C57.1677 19.0677 57.0904 19.1732 56.9903 19.2603C56.8948 19.3475 56.7789 19.4163 56.6424 19.4667C56.5106 19.5126 56.3628 19.5355 56.1991 19.5355H54.4733V15.9442H56.2673ZM56.0285 17.4784C56.2013 17.4784 56.3355 17.4303 56.431 17.3339C56.531 17.233 56.581 17.0954 56.581 16.9211C56.581 16.7744 56.5424 16.6505 56.4651 16.5496C56.3878 16.4441 56.2582 16.3914 56.0763 16.3914H55.0599V17.4784H56.0285ZM56.1308 19.0883C56.3127 19.0883 56.456 19.031 56.5606 18.9163C56.6697 18.7971 56.7243 18.6572 56.7243 18.4966C56.7243 18.3453 56.6743 18.2123 56.5742 18.0976C56.4742 17.9829 56.3309 17.9256 56.1445 17.9256H55.0599V19.0883H56.1308Z" fill="#0D242C"/>
<path d="M59.4619 19.6043C59.1936 19.6043 58.948 19.5539 58.7252 19.4529C58.5069 19.352 58.3182 19.2167 58.1591 19.047C58.0045 18.8773 57.8839 18.6801 57.7975 18.4554C57.7111 18.2306 57.6679 17.9944 57.6679 17.7467C57.6679 17.4945 57.7111 17.256 57.7975 17.0312C57.8885 16.8065 58.0113 16.6093 58.1659 16.4396C58.325 16.2698 58.5138 16.1345 58.732 16.0336C58.9549 15.9327 59.1982 15.8823 59.4619 15.8823C59.7257 15.8823 59.9689 15.9327 60.1918 16.0336C60.4146 16.1345 60.6033 16.2698 60.7579 16.4396C60.9171 16.6093 61.0399 16.8065 61.1263 17.0312C61.2172 17.256 61.2627 17.4945 61.2627 17.7467C61.2627 17.9944 61.2195 18.2306 61.1331 18.4554C61.0467 18.6801 60.9239 18.8773 60.7647 19.047C60.6056 19.2167 60.4146 19.352 60.1918 19.4529C59.9735 19.5539 59.7302 19.6043 59.4619 19.6043ZM58.2818 17.7536C58.2818 17.9417 58.3114 18.116 58.3705 18.2765C58.4342 18.437 58.5183 18.5769 58.6229 18.6962C58.732 18.8154 58.8571 18.9094 58.9981 18.9782C59.1436 19.047 59.2982 19.0814 59.4619 19.0814C59.6256 19.0814 59.778 19.047 59.9189 18.9782C60.0644 18.9094 60.1918 18.8154 60.3009 18.6962C60.41 18.5723 60.4942 18.4301 60.5533 18.2696C60.617 18.1045 60.6488 17.9279 60.6488 17.7399C60.6488 17.5564 60.617 17.3844 60.5533 17.2239C60.4942 17.0587 60.41 16.9166 60.3009 16.7973C60.1918 16.6735 60.0644 16.5771 59.9189 16.5084C59.778 16.4396 59.6256 16.4052 59.4619 16.4052C59.2982 16.4052 59.1436 16.4418 58.9981 16.5152C58.8571 16.584 58.732 16.6803 58.6229 16.8042C58.5183 16.9234 58.4342 17.0656 58.3705 17.2307C58.3114 17.3913 58.2818 17.5656 58.2818 17.7536Z" fill="#0D242C"/>
<path d="M61.3789 19.0126H61.5835C61.6926 18.9851 61.7836 18.9347 61.8563 18.8613C61.9336 18.7879 61.9996 18.6755 62.0542 18.5242C62.1087 18.3682 62.1565 18.1641 62.1974 17.9119C62.2383 17.655 62.2793 17.3339 62.3202 16.9487L62.4293 15.9442H64.6462V19.0126H65.0691V20.6638H64.5507V19.5355H61.8768V20.6638H61.3789V19.0126ZM64.0596 19.0126V16.4189H62.9818L62.8795 17.1963C62.8158 17.6917 62.7431 18.0838 62.6612 18.3728C62.5839 18.6572 62.4884 18.8705 62.3747 19.0126H64.0596Z" fill="#0D242C"/>
<path d="M65.3487 17.733C65.3487 17.4807 65.3919 17.2422 65.4783 17.0175C65.5647 16.7927 65.6874 16.5978 65.8466 16.4327C66.0058 16.263 66.1945 16.13 66.4128 16.0336C66.6356 15.9327 66.8834 15.8823 67.1563 15.8823C67.511 15.8823 67.8156 15.9625 68.0703 16.1231C68.3295 16.279 68.525 16.49 68.6569 16.756L68.0703 16.9418C67.9793 16.7721 67.852 16.6414 67.6883 16.5496C67.5246 16.4533 67.3427 16.4052 67.1426 16.4052C66.9789 16.4052 66.8243 16.4396 66.6788 16.5084C66.5333 16.5726 66.4082 16.6643 66.3036 16.7835C66.199 16.9028 66.1149 17.0427 66.0512 17.2032C65.9921 17.3638 65.9626 17.5403 65.9626 17.733C65.9626 17.921 65.9944 18.0976 66.0581 18.2627C66.1217 18.4278 66.2058 18.5723 66.3104 18.6962C66.4196 18.8154 66.5446 18.9094 66.6856 18.9782C66.8311 19.047 66.9857 19.0814 67.1494 19.0814C67.254 19.0814 67.3563 19.0677 67.4564 19.0402C67.561 19.008 67.6542 18.9668 67.7361 18.9163C67.8225 18.8659 67.8975 18.8085 67.9612 18.7443C68.0248 18.6755 68.0703 18.6021 68.0976 18.5242L68.6842 18.703C68.6296 18.8361 68.5523 18.9576 68.4523 19.0677C68.3568 19.1778 68.2431 19.2718 68.1112 19.3498C67.9793 19.4277 67.8316 19.4896 67.6678 19.5355C67.5087 19.5814 67.3404 19.6043 67.1631 19.6043C66.8948 19.6043 66.6492 19.5539 66.4264 19.4529C66.2036 19.352 66.0126 19.2167 65.8534 19.047C65.6943 18.8773 65.5692 18.6801 65.4783 18.4554C65.3919 18.226 65.3487 17.9852 65.3487 17.733Z" fill="#0D242C"/>
<path d="M70.6672 19.5355H70.0806V16.4671H68.8869V15.9442H71.8609V16.4671H70.6672V19.5355Z" fill="#0D242C"/>
<path d="M74.1701 15.9442C74.2974 15.9442 74.4157 15.9671 74.5248 16.013C74.6339 16.0543 74.7294 16.1139 74.8113 16.1919C74.8931 16.2698 74.9568 16.3639 75.0023 16.474C75.0478 16.5794 75.0705 16.6964 75.0705 16.8248C75.0705 16.9028 75.0614 16.9831 75.0432 17.0656C75.025 17.1436 74.9955 17.2216 74.9545 17.2995C74.9182 17.3729 74.8681 17.4417 74.8045 17.5059C74.7408 17.5701 74.6635 17.6206 74.5725 17.6573C74.7681 17.7123 74.9227 17.8155 75.0364 17.9669C75.1501 18.1137 75.2069 18.2994 75.2069 18.5242C75.2069 18.6755 75.1796 18.8154 75.1251 18.9438C75.0705 19.0677 74.9932 19.1732 74.8931 19.2603C74.7976 19.3475 74.6817 19.4163 74.5453 19.4667C74.4134 19.5126 74.2656 19.5355 74.1019 19.5355H72.3761V15.9442H74.1701ZM73.9314 17.4784C74.1042 17.4784 74.2383 17.4303 74.3338 17.3339C74.4339 17.233 74.4839 17.0954 74.4839 16.9211C74.4839 16.7744 74.4452 16.6505 74.3679 16.5496C74.2906 16.4441 74.161 16.3914 73.9791 16.3914H72.9628V17.4784H73.9314ZM74.0337 19.0883C74.2156 19.0883 74.3588 19.031 74.4634 18.9163C74.5725 18.7971 74.6271 18.6572 74.6271 18.4966C74.6271 18.3453 74.5771 18.2123 74.4771 18.0976C74.377 17.9829 74.2338 17.9256 74.0473 17.9256H72.9628V19.0883H74.0337Z" fill="#0D242C"/>
<path d="M77.3647 19.6043C77.0964 19.6043 76.8509 19.5539 76.6281 19.4529C76.4098 19.352 76.2211 19.2167 76.0619 19.047C75.9073 18.8773 75.7868 18.6801 75.7004 18.4554C75.614 18.2306 75.5708 17.9944 75.5708 17.7467C75.5708 17.4945 75.614 17.256 75.7004 17.0312C75.7913 16.8065 75.9141 16.6093 76.0687 16.4396C76.2279 16.2698 76.4166 16.1345 76.6349 16.0336C76.8577 15.9327 77.101 15.8823 77.3647 15.8823C77.6285 15.8823 77.8718 15.9327 78.0946 16.0336C78.3174 16.1345 78.5061 16.2698 78.6608 16.4396C78.8199 16.6093 78.9427 16.8065 79.0291 17.0312C79.12 17.256 79.1655 17.4945 79.1655 17.7467C79.1655 17.9944 79.1223 18.2306 79.0359 18.4554C78.9495 18.6801 78.8267 18.8773 78.6676 19.047C78.5084 19.2167 78.3174 19.352 78.0946 19.4529C77.8763 19.5539 77.633 19.6043 77.3647 19.6043ZM76.1847 17.7536C76.1847 17.9417 76.2142 18.116 76.2734 18.2765C76.337 18.437 76.4211 18.5769 76.5257 18.6962C76.6349 18.8154 76.7599 18.9094 76.9009 18.9782C77.0464 19.047 77.201 19.0814 77.3647 19.0814C77.5284 19.0814 77.6808 19.047 77.8218 18.9782C77.9673 18.9094 78.0946 18.8154 78.2037 18.6962C78.3129 18.5723 78.397 18.4301 78.4561 18.2696C78.5198 18.1045 78.5516 17.9279 78.5516 17.7399C78.5516 17.5564 78.5198 17.3844 78.4561 17.2239C78.397 17.0587 78.3129 16.9166 78.2037 16.7973C78.0946 16.6735 77.9673 16.5771 77.8218 16.5084C77.6808 16.4396 77.5284 16.4052 77.3647 16.4052C77.201 16.4052 77.0464 16.4418 76.9009 16.5152C76.7599 16.584 76.6349 16.6803 76.5257 16.8042C76.4211 16.9234 76.337 17.0656 76.2734 17.2307C76.2142 17.3913 76.1847 17.5656 76.1847 17.7536Z" fill="#0D242C"/>
<path d="M83.1665 18.2214L84.3739 15.9442H84.9673V19.5355H84.3807V17.0037L83.3371 18.9507H82.996L81.9456 17.0037V19.5355H81.3589V15.9442H81.9592L83.1665 18.2214Z" fill="#0D242C"/>
<path d="M87.3875 19.6043C87.1192 19.6043 86.8736 19.5561 86.6508 19.4598C86.428 19.3589 86.237 19.2236 86.0778 19.0539C85.9187 18.8842 85.7936 18.687 85.7027 18.4622C85.6163 18.2329 85.5731 17.9921 85.5731 17.7399C85.5731 17.4876 85.6163 17.2491 85.7027 17.0243C85.7936 16.7996 85.9187 16.6024 86.0778 16.4327C86.2416 16.263 86.4348 16.13 86.6576 16.0336C86.8805 15.9327 87.126 15.8823 87.3943 15.8823C87.6626 15.8823 87.9059 15.9327 88.1242 16.0336C88.347 16.1345 88.5357 16.2698 88.6903 16.4396C88.845 16.6047 88.9632 16.7996 89.045 17.0243C89.1314 17.2445 89.1746 17.4738 89.1746 17.7123C89.1746 17.7628 89.1724 17.8087 89.1678 17.8499C89.1678 17.8912 89.1655 17.9233 89.161 17.9463H86.2074C86.2211 18.1251 86.262 18.288 86.3302 18.4347C86.3984 18.5815 86.4871 18.7076 86.5962 18.8131C86.7054 18.9186 86.8282 19.0012 86.9646 19.0608C87.1056 19.1204 87.2534 19.1502 87.408 19.1502C87.5171 19.1502 87.624 19.1365 87.7286 19.109C87.8331 19.0768 87.9309 19.0356 88.0219 18.9851C88.1128 18.9347 88.1924 18.8727 88.2606 18.7994C88.3334 18.726 88.3879 18.6434 88.4243 18.5517L88.9427 18.6962C88.8836 18.8292 88.8018 18.9507 88.6972 19.0608C88.5971 19.1709 88.4789 19.2672 88.3425 19.3498C88.2106 19.4277 88.0628 19.4896 87.8991 19.5355C87.7354 19.5814 87.5648 19.6043 87.3875 19.6043ZM88.6085 17.4991C88.5948 17.3294 88.5516 17.1734 88.4789 17.0312C88.4107 16.8845 88.322 16.7606 88.2129 16.6597C88.1083 16.5588 87.9855 16.4808 87.8445 16.4258C87.7035 16.3662 87.5535 16.3364 87.3943 16.3364C87.2352 16.3364 87.0851 16.3662 86.9441 16.4258C86.8032 16.4808 86.6781 16.5611 86.569 16.6666C86.4644 16.7675 86.378 16.889 86.3098 17.0312C86.2461 17.1734 86.2074 17.3294 86.1938 17.4991H88.6085Z" fill="#0D242C"/>
<path d="M91.4312 15.2287C91.0765 15.3204 90.7968 15.4787 90.5922 15.7034C90.3876 15.9281 90.2534 16.2515 90.1898 16.6735C90.3489 16.4808 90.5308 16.3364 90.7355 16.24C90.9401 16.1391 91.1606 16.0887 91.3971 16.0887C91.6245 16.0887 91.8337 16.1345 92.0247 16.2263C92.2202 16.3134 92.3884 16.4373 92.5294 16.5978C92.6704 16.7583 92.7795 16.9487 92.8568 17.1688C92.9387 17.3844 92.9796 17.6183 92.9796 17.8706C92.9796 18.1274 92.9364 18.3636 92.85 18.5792C92.7682 18.7902 92.6522 18.9714 92.5021 19.1227C92.3521 19.2741 92.1702 19.3933 91.9564 19.4805C91.7473 19.563 91.5131 19.6043 91.2539 19.6043C90.7082 19.6043 90.2944 19.4117 90.0124 19.0264C89.7305 18.6411 89.5895 18.0793 89.5895 17.3408C89.5895 16.5932 89.7418 16.0061 90.0465 15.5796C90.3557 15.1484 90.8037 14.8595 91.3903 14.7127L92.5158 14.4375L92.6249 14.9329L91.4312 15.2287ZM90.2034 17.8293C90.2034 18.0128 90.2307 18.1825 90.2853 18.3384C90.3398 18.4943 90.4149 18.6297 90.5104 18.7443C90.6104 18.859 90.7264 18.9484 90.8582 19.0126C90.9947 19.0768 91.1425 19.109 91.3016 19.109C91.4562 19.109 91.5995 19.0791 91.7313 19.0195C91.8632 18.9599 91.9746 18.8773 92.0656 18.7718C92.1611 18.6618 92.2338 18.531 92.2839 18.3797C92.3384 18.2283 92.3657 18.0632 92.3657 17.8843C92.3657 17.7009 92.3384 17.5335 92.2839 17.3821C92.2293 17.2262 92.1543 17.0931 92.0588 16.9831C91.9633 16.873 91.8473 16.7881 91.7109 16.7285C91.5745 16.6689 91.4244 16.6391 91.2607 16.6391C91.1015 16.6391 90.956 16.6689 90.8241 16.7285C90.6968 16.7835 90.5877 16.8638 90.4967 16.9693C90.4058 17.0748 90.333 17.2009 90.2784 17.3477C90.2284 17.4899 90.2034 17.6504 90.2034 17.8293Z" fill="#0D242C"/>
<path d="M95.1681 19.6043C94.8998 19.6043 94.6543 19.5561 94.4315 19.4598C94.2086 19.3589 94.0176 19.2236 93.8585 19.0539C93.6993 18.8842 93.5743 18.687 93.4833 18.4622C93.3969 18.2329 93.3537 17.9921 93.3537 17.7399C93.3537 17.4876 93.3969 17.2491 93.4833 17.0243C93.5743 16.7996 93.6993 16.6024 93.8585 16.4327C94.0222 16.263 94.2155 16.13 94.4383 16.0336C94.6611 15.9327 94.9067 15.8823 95.175 15.8823C95.4433 15.8823 95.6865 15.9327 95.9048 16.0336C96.1276 16.1345 96.3164 16.2698 96.471 16.4396C96.6256 16.6047 96.7438 16.7996 96.8257 17.0243C96.9121 17.2445 96.9553 17.4738 96.9553 17.7123C96.9553 17.7628 96.953 17.8087 96.9485 17.8499C96.9485 17.8912 96.9462 17.9233 96.9416 17.9463H93.9881C94.0017 18.1251 94.0426 18.288 94.1109 18.4347C94.1791 18.5815 94.2677 18.7076 94.3769 18.8131C94.486 18.9186 94.6088 19.0012 94.7452 19.0608C94.8862 19.1204 95.034 19.1502 95.1886 19.1502C95.2977 19.1502 95.4046 19.1365 95.5092 19.109C95.6138 19.0768 95.7116 19.0356 95.8025 18.9851C95.8934 18.9347 95.973 18.8727 96.0412 18.7994C96.114 18.726 96.1686 18.6434 96.2049 18.5517L96.7234 18.6962C96.6642 18.8292 96.5824 18.9507 96.4778 19.0608C96.3778 19.1709 96.2595 19.2672 96.1231 19.3498C95.9912 19.4277 95.8434 19.4896 95.6797 19.5355C95.516 19.5814 95.3455 19.6043 95.1681 19.6043ZM96.3891 17.4991C96.3755 17.3294 96.3323 17.1734 96.2595 17.0312C96.1913 16.8845 96.1026 16.7606 95.9935 16.6597C95.8889 16.5588 95.7661 16.4808 95.6251 16.4258C95.4842 16.3662 95.3341 16.3364 95.175 16.3364C95.0158 16.3364 94.8657 16.3662 94.7248 16.4258C94.5838 16.4808 94.4587 16.5611 94.3496 16.6666C94.245 16.7675 94.1586 16.889 94.0904 17.0312C94.0267 17.1734 93.9881 17.3294 93.9744 17.4991H96.3891Z" fill="#0D242C"/>
<path d="M96.9758 19.0402C97.1213 19.0264 97.2418 18.992 97.3373 18.937C97.4374 18.8773 97.5192 18.7741 97.5829 18.6274C97.6511 18.476 97.7079 18.2673 97.7534 18.0013C97.7989 17.7307 97.8443 17.3798 97.8898 16.9487L97.999 15.9442H100.216V19.5355H99.6292V16.4189H98.5515L98.4492 17.1963C98.3855 17.6642 98.3173 18.0494 98.2445 18.3522C98.1763 18.6503 98.0899 18.8888 97.9853 19.0677C97.8807 19.242 97.7557 19.3658 97.6102 19.4392C97.4646 19.5126 97.2873 19.5561 97.0781 19.5699L96.9758 19.0402Z" fill="#0D242C"/>
<path d="M101.66 18.6824L103.597 15.9442H104.082V19.5355H103.495V16.8523L101.592 19.5355H101.074V15.9442H101.66V18.6824Z" fill="#0D242C"/>
<path d="M15.97 13.059L17.7054 10.0301L18.5957 11.5826L16.8452 14.5962L15.97 13.059ZM13.299 12.8611L15.0344 9.83226L17.3432 9.83226L15.6078 12.8459L13.299 12.8611ZM8.81722 5.43362L12.2729 5.4184L14.6873 9.6344L12.9369 12.648L8.81722 5.43362ZM25.009 12.8154L26.0654 11.0042L27.0915 12.8154L25.009 12.8154ZM5.46719 3.05927L7.20257 0.045661L25.6881 8.24007e-08L23.9527 3.0136L5.46719 3.05927ZM24.3149 3.22669L26.0503 0.197863L32.5391 11.5369L30.8037 14.5658L24.3149 3.22669ZM5.4521 3.48543C11.619 3.45499 17.7858 3.4347 23.9527 3.42455L30.4415 14.7636L25.8994 14.7788L25.009 13.2416L27.4537 13.2264C27.5241 13.2264 27.5794 13.1909 27.6196 13.1198C27.6398 13.0894 27.6498 13.0539 27.6498 13.0133C27.6498 12.9829 26.1458 10.3396 23.1378 5.08355C23.0976 5.01253 23.0372 4.97701 22.9568 4.97701L8.45506 5.02267C8.37457 5.02267 8.31421 5.05819 8.27397 5.12922C8.25385 5.15966 8.24379 5.1901 8.24379 5.22054C8.24379 5.24083 8.24379 5.25605 8.24379 5.2662C8.25385 5.28649 9.76287 7.91959 12.7709 13.1655C12.801 13.2264 12.8513 13.2619 12.9218 13.272L15.6078 13.2568L16.4981 14.8093L11.956 14.8245L5.4521 3.48543Z" fill="#9DB0A5"/>
<path d="M16.5691 6.20887L14.8337 9.2377L13.9434 7.68523L15.6938 4.67163L16.5691 6.20887ZM19.24 6.40673L17.5047 9.43556L15.1959 9.43556L16.9312 6.42196L19.24 6.40673ZM23.7218 13.8342L20.2662 13.8494L17.8517 9.63342L19.6022 6.61982L23.7218 13.8342ZM7.53003 6.4524L6.47371 8.2636L5.44757 6.45239L7.53003 6.4524ZM27.0719 16.2086L25.3365 19.2222L6.85096 19.2678L8.58634 16.2542L27.0719 16.2086ZM8.22418 16.0411L6.4888 19.07L8.63575e-07 7.73089L1.73538 4.70207L8.22418 16.0411ZM27.087 15.7824C20.9201 15.8128 14.7532 15.8331 8.58634 15.8433L2.09754 4.50421L6.6397 4.48899L7.53003 6.02623L5.08541 6.04145C5.01499 6.04145 4.95966 6.07696 4.91942 6.14799C4.8993 6.17843 4.88924 6.21394 4.88924 6.25453C4.88924 6.28497 6.39323 8.92822 9.40121 14.1843C9.44145 14.2553 9.50182 14.2908 9.5823 14.2908L24.084 14.2452C24.1645 14.2452 24.2249 14.2096 24.2651 14.1386C24.2852 14.1082 24.2953 14.0777 24.2953 14.0473C24.2953 14.027 24.2953 14.0118 24.2953 14.0016C24.2852 13.9813 22.7762 11.3482 19.7682 6.10233C19.738 6.04145 19.6877 6.00594 19.6173 5.99579L16.9312 6.01101L16.0409 4.45855L20.5831 4.44333L27.087 15.7824Z" fill="#9DB0A5"/>
</svg>
