<svg width="182" height="35" fill="none" xmlns="http://www.w3.org/2000/svg"><path d="M69.637 21.022c-.93-.103-1.6-.317-2.014-.642-.398-.324-.627-.848-.686-1.57a5.635 5.635 0 01-2.08 1.792c-.81.413-1.748.62-2.81.62-.84 0-1.608-.067-2.301-.2-.679-.133-1.247-.361-1.704-.686a2.937 2.937 0 01-.973-1.35c-.192-.575-.229-1.29-.111-2.146.133-.973.384-1.777.752-2.412.37-.634.826-1.136 1.372-1.505a5.215 5.215 0 011.925-.796 11.723 11.723 0 012.346-.221h3.496c.059-.708.051-1.262-.022-1.66-.06-.413-.2-.715-.42-.907-.222-.207-.532-.332-.93-.376-.398-.06-.9-.089-1.505-.089-.442 0-.885.03-1.327.089a13.388 13.388 0 00-2.302.509c-.324.088-.597.17-.818.243l-.398-2.279c.648-.295 1.423-.524 2.323-.686a16.34 16.34 0 012.898-.243c1.195 0 2.176.088 2.943.265.782.177 1.38.524 1.793 1.04.413.516.649 1.254.708 2.213.074.959 0 2.22-.222 3.784l-.044.354-.354 2.478c-.103.723-.073 1.232.089 1.527.162.295.48.48.951.553l-.575 2.301zm-3.098-6.727h-3.518c-.428 0-.819.03-1.173.089a2.29 2.29 0 00-.951.332 2.13 2.13 0 00-.708.774c-.192.325-.325.775-.399 1.35-.059.443-.037.797.067 1.062.103.266.273.465.509.598.236.132.523.22.862.265.355.044.745.066 1.173.066.753 0 1.372-.095 1.859-.287a2.69 2.69 0 001.173-.863c.31-.384.545-.848.708-1.394.162-.56.295-1.21.398-1.947v-.045zM81.434 21l1.638-11.794h-4.205l-1.46 7.346c-.177.974-.42 1.763-.73 2.368-.295.605-.694 1.077-1.195 1.416-.487.325-1.092.546-1.815.664-.722.103-1.593.155-2.61.155l.442-2.28c.442 0 .826-.014 1.15-.044.325-.044.605-.132.841-.265.236-.147.436-.369.598-.664.162-.31.295-.73.398-1.261l2.058-9.847h9.78L84.333 21h-2.899zm14.891-4.625c.074-.501.081-.892.022-1.172-.044-.28-.154-.487-.331-.62-.177-.147-.428-.236-.753-.265-.31-.03-.693-.045-1.15-.045h-2.855l-.597 4.36h2.854c.457 0 .848-.015 1.173-.045.325-.03.59-.11.796-.243.222-.148.391-.362.51-.642.132-.295.236-.693.31-1.195l.021-.133zM87.408 21L89.4 6.794h2.92l-.73 5.112h2.81c1.048 0 1.918.059 2.611.177.694.103 1.232.317 1.616.641.383.31.62.768.708 1.372.103.59.088 1.372-.045 2.346-.132.973-.332 1.763-.597 2.367-.266.59-.634 1.048-1.106 1.372-.472.325-1.07.546-1.793.664-.722.103-1.608.155-2.655.155h-5.73zm21.258 0l.708-5.111h-1.748l-2.943 3.053c-.531.546-1.018.974-1.46 1.284a5.22 5.22 0 01-1.284.641c-.398.133-.804.2-1.217.2-.398 0-.819-.023-1.261-.067l.044-2.058c.148 0 .31.008.487.022.192.015.376.022.553.022.192-.014.369-.044.531-.088a.874.874 0 00.398-.221l2.855-2.899c-.605-.074-1.106-.2-1.505-.376a2.117 2.117 0 01-.907-.775c-.207-.354-.332-.789-.376-1.305-.03-.531.015-1.188.133-1.97.132-.973.332-1.755.597-2.345.266-.605.634-1.07 1.106-1.394.487-.325 1.092-.538 1.815-.642.723-.118 1.608-.177 2.655-.177h5.731L111.587 21h-2.921zm-4.027-9.581c-.074.501-.089.892-.045 1.173.059.28.177.494.354.641.177.133.421.214.731.244.309.03.7.044 1.172.044h2.855l.619-4.36h-2.854c-.472 0-.87.016-1.195.045-.31.03-.575.118-.797.266-.221.132-.398.346-.531.641-.118.28-.213.672-.287 1.173l-.022.133zM123.158 21l.885-6.35h-5.753l-.885 6.35h-2.899l1.992-14.206h2.898l-.774 5.444h5.753l.774-5.444h2.899L126.057 21h-2.899zm17.894-.686c-.664.295-1.461.531-2.39.708-.93.177-1.911.266-2.943.266-1.092 0-2.065-.096-2.921-.288-.841-.177-1.541-.531-2.102-1.062-.546-.531-.922-1.276-1.129-2.235-.191-.974-.177-2.242.045-3.806.221-1.563.568-2.825 1.04-3.784.472-.973 1.054-1.726 1.748-2.257a5.67 5.67 0 012.39-1.062 14.67 14.67 0 013.009-.287c2.08 0 3.695.295 4.846.885l-1.062 2.279a32.28 32.28 0 00-1.66-.487c-.708-.207-1.512-.31-2.412-.31-.605 0-1.173.044-1.704.133a3.1 3.1 0 00-1.438.642c-.413.339-.774.848-1.084 1.527-.31.663-.546 1.57-.708 2.721-.162 1.165-.185 2.088-.067 2.766.118.664.34 1.165.664 1.505.34.324.76.53 1.261.62a9.587 9.587 0 001.66.132c.443 0 .885-.03 1.328-.089.457-.073.885-.154 1.283-.243.398-.088.76-.184 1.084-.288.34-.103.62-.191.841-.265l.421 2.28zm2.575-3.319l.31-2.28h5.399l-.31 2.28h-5.399zm19.898 3.32c-.663.294-1.46.53-2.389.707-.93.177-1.911.266-2.943.266-1.092 0-2.065-.096-2.921-.288-.841-.177-1.542-.531-2.102-1.062-.546-.531-.922-1.276-1.129-2.235-.191-.974-.177-2.242.045-3.806.221-1.563.568-2.825 1.04-3.784.472-.973 1.054-1.726 1.748-2.257a5.671 5.671 0 012.389-1.062 14.687 14.687 0 013.01-.287c2.08 0 3.695.295 4.846.885l-1.063 2.279a31.891 31.891 0 00-1.659-.487c-.708-.207-1.512-.31-2.412-.31-.605 0-1.173.044-1.704.133a3.1 3.1 0 00-1.438.642c-.413.339-.774.848-1.084 1.527-.31.663-.546 1.57-.708 2.721-.163 1.165-.185 2.088-.067 2.766.118.664.34 1.165.664 1.505.339.324.76.53 1.261.62a9.587 9.587 0 001.66.132c.442 0 .885-.03 1.328-.089.457-.073.885-.154 1.283-.243.398-.088.76-.184 1.084-.288.339-.103.62-.191.841-.265l.42 2.28zM61.314 32.273h-.922V27.49H57.72v4.783h-.922v-5.598h4.515v5.598zm4.37.108c-.465 0-.876-.115-1.234-.343a2.623 2.623 0 01-.836-.87v3.39h-.944v-7.883h.836v1.05c.222-.343.508-.618.858-.825a2.25 2.25 0 011.18-.322c.386 0 .74.079 1.062.236.322.157.6.372.837.643.236.265.418.573.547.923.136.35.204.715.204 1.094 0 .4-.061.78-.183 1.137a2.88 2.88 0 01-.515.922 2.6 2.6 0 01-.793.623c-.308.15-.648.225-1.02.225zm-.29-.816c.279 0 .53-.057.75-.171.23-.122.423-.279.58-.472.165-.2.29-.425.376-.676.085-.25.128-.507.128-.772 0-.279-.05-.543-.15-.794a2.08 2.08 0 00-.407-.665 1.812 1.812 0 00-.612-.45 1.655 1.655 0 00-.75-.172c-.172 0-.351.036-.537.107-.179.065-.35.154-.515.269-.157.107-.297.24-.418.396-.115.15-.19.312-.225.483v1.598c.078.186.178.361.3.526.121.157.26.297.418.418.158.114.326.207.504.279.18.064.365.096.558.096zm6.189.816c-.422 0-.808-.079-1.159-.236a2.84 2.84 0 01-.89-.633 2.895 2.895 0 01-.568-.922 3.028 3.028 0 01-.204-1.105c0-.394.068-.765.204-1.116.143-.35.336-.658.579-.922a2.84 2.84 0 01.89-.633 2.77 2.77 0 011.148-.236c.415 0 .797.079 1.148.236a2.802 2.802 0 011.47 1.555c.142.35.214.722.214 1.116 0 .386-.068.754-.204 1.105a2.8 2.8 0 01-.58.922 2.807 2.807 0 01-2.048.869zm-1.856-2.886c0 .294.047.565.14.816.1.25.232.468.397.654.171.186.368.332.59.44.228.107.472.16.729.16s.497-.053.719-.16c.228-.108.429-.254.6-.44.172-.193.304-.415.397-.665.1-.258.15-.533.15-.826 0-.286-.05-.554-.15-.804a1.936 1.936 0 00-.397-.665 1.843 1.843 0 00-.6-.45 1.627 1.627 0 00-.72-.162c-.256 0-.5.057-.728.172a1.882 1.882 0 00-.59.45 2.192 2.192 0 00-.397.665c-.093.25-.14.522-.14.816zm6.56 1.448l3.047-4.268h.761v5.598h-.922V28.09l-2.993 4.183h-.815v-5.598h.923v4.268zm4.837-3.69c.415-.45.947-.675 1.598-.675.493 0 .89.125 1.19.375.3.244.451.573.451.987 0 .33-.09.608-.268.837a1.01 1.01 0 01-.708.386c.407.05.726.207.954.472.237.257.355.59.355.997 0 .258-.05.494-.15.708-.094.215-.23.4-.408.558a2.02 2.02 0 01-.644.354 2.438 2.438 0 01-.815.129c-.715 0-1.29-.272-1.727-.816l.504-.654c.165.23.347.397.547.504.2.1.436.15.708.15.343 0 .608-.078.794-.235.186-.165.279-.397.279-.698 0-.343-.122-.604-.365-.783-.243-.186-.597-.279-1.062-.279h-.375v-.718h.375c.35 0 .626-.075.826-.225a.716.716 0 00.311-.612.613.613 0 00-.225-.504c-.15-.128-.354-.193-.612-.193-.371 0-.729.157-1.072.472l-.461-.536zm7.36-.578c.2 0 .386.035.557.107.172.064.322.157.45.279.13.121.23.268.3.44.072.164.108.346.108.546a1.524 1.524 0 01-.182.74 1.236 1.236 0 01-.236.322c-.1.1-.222.18-.365.236.308.086.55.247.73.483.178.229.268.518.268.869 0 .236-.043.454-.129.654a1.389 1.389 0 01-.365.493 1.65 1.65 0 01-.547.322 2.13 2.13 0 01-.697.107h-2.714v-5.598h2.821zm-.376 2.391c.272 0 .483-.075.633-.225.157-.157.236-.372.236-.643a.919.919 0 00-.183-.58c-.121-.164-.325-.246-.611-.246h-1.598v1.694h1.523zm.16 2.51c.287 0 .512-.09.677-.268a.934.934 0 00.257-.654.913.913 0 00-.236-.622c-.157-.179-.382-.268-.676-.268h-1.705v1.812h1.684zm5.239.805c-.422 0-.808-.079-1.159-.236a2.84 2.84 0 01-.89-.633 2.897 2.897 0 01-.568-.922 3.03 3.03 0 01-.204-1.105c0-.394.068-.765.204-1.116.143-.35.336-.658.579-.922a2.84 2.84 0 01.89-.633 2.77 2.77 0 011.148-.236c.414 0 .797.079 1.147.236.35.157.648.368.89.633a2.8 2.8 0 01.58.922c.143.35.214.722.214 1.116 0 .386-.068.754-.203 1.105a2.8 2.8 0 01-.58.922 2.805 2.805 0 01-2.048.869zm-1.856-2.886c0 .294.047.565.14.816.1.25.232.468.396.654.172.186.369.332.59.44.23.107.472.16.73.16.257 0 .497-.053.718-.16.23-.108.43-.254.601-.44.172-.193.304-.415.397-.665.1-.258.15-.533.15-.826 0-.286-.05-.554-.15-.804a1.936 1.936 0 00-.397-.665 1.842 1.842 0 00-.6-.45 1.627 1.627 0 00-.72-.162c-.257 0-.5.057-.729.172a1.882 1.882 0 00-.59.45 2.192 2.192 0 00-.396.665c-.093.25-.14.522-.14.816zm4.87 1.963h.322a.902.902 0 00.429-.236c.121-.114.225-.29.31-.525a5.74 5.74 0 00.226-.955c.064-.4.129-.9.193-1.502l.172-1.565h3.486v4.783h.665v2.575h-.815v-1.76h-4.205v1.76h-.783v-2.575zm4.215 0v-4.043h-1.694l-.161 1.212c-.1.772-.215 1.383-.344 1.834-.121.443-.271.776-.45.997h2.649zm2.027-1.995c0-.393.068-.765.204-1.115a2.7 2.7 0 01.579-.912 2.71 2.71 0 01.89-.622 2.83 2.83 0 011.17-.236c.557 0 1.036.125 1.437.375.407.244.715.573.922.987l-.922.29a1.496 1.496 0 00-.601-.612 1.67 1.67 0 00-.858-.225c-.257 0-.5.054-.729.161-.229.1-.426.243-.59.43a2.21 2.21 0 00-.397.653c-.093.25-.139.526-.139.826a2.326 2.326 0 00.547 1.502c.171.186.368.332.59.44a1.79 1.79 0 001.212.096 1.89 1.89 0 00.439-.193 1.68 1.68 0 00.354-.268.988.988 0 00.215-.343l.922.279a1.935 1.935 0 01-.364.568 2.158 2.158 0 01-.537.44c-.207.121-.44.218-.697.29-.25.07-.515.107-.794.107a2.793 2.793 0 01-2.059-.87 2.956 2.956 0 01-.59-.921 3.14 3.14 0 01-.204-1.127zm8.363 2.81h-.922V27.49h-1.877v-.815h4.676v.815h-1.877v4.783zm5.508-5.598c.201 0 .387.035.558.107a1.282 1.282 0 01.751.719c.071.164.107.346.107.546a1.514 1.514 0 01-.182.74 1.236 1.236 0 01-.236.322c-.1.1-.222.18-.365.236.308.086.551.247.73.483.178.229.268.518.268.869 0 .236-.043.454-.129.654a1.383 1.383 0 01-.365.493 1.65 1.65 0 01-.547.322 2.125 2.125 0 01-.697.107h-2.713v-5.598h2.82zm-.375 2.391c.272 0 .483-.075.633-.225.157-.157.236-.372.236-.643a.917.917 0 00-.183-.58c-.121-.164-.325-.246-.611-.246h-1.598v1.694h1.523zm.161 2.51c.286 0 .511-.09.676-.268a.936.936 0 00.257-.654.915.915 0 00-.236-.622c-.157-.179-.382-.268-.676-.268h-1.705v1.812h1.684zm5.238.805a2.8 2.8 0 01-1.159-.236 2.839 2.839 0 01-.89-.633 2.9 2.9 0 01-.568-.922 3.026 3.026 0 01-.204-1.105c0-.394.068-.765.204-1.116.143-.35.336-.658.579-.922.25-.265.547-.476.89-.633a2.773 2.773 0 011.148-.236 2.765 2.765 0 012.617 1.791c.143.35.214.722.214 1.116 0 .386-.068.754-.203 1.105a2.8 2.8 0 01-.58.922 2.797 2.797 0 01-2.048.869zm-1.856-2.886c0 .294.047.565.14.816.1.25.232.468.397.654.171.186.368.332.589.44.229.107.472.16.73.16.257 0 .497-.053.718-.16a1.92 1.92 0 00.601-.44c.172-.193.304-.415.397-.665.1-.258.15-.533.15-.826 0-.286-.05-.554-.15-.804a1.932 1.932 0 00-.397-.665 1.846 1.846 0 00-.601-.45 1.624 1.624 0 00-.718-.162 1.61 1.61 0 00-.73.172 1.878 1.878 0 00-.589.45 2.178 2.178 0 00-.537 1.48zm10.979.73l1.898-3.55h.933v5.598h-.922v-3.947l-1.641 3.036h-.536l-1.652-3.036v3.947h-.923v-5.598h.944l1.899 3.55zm6.637 2.156a2.91 2.91 0 01-1.158-.225 2.799 2.799 0 01-.901-.633 2.937 2.937 0 01-.59-.923 3.14 3.14 0 01-.204-1.126c0-.393.068-.765.204-1.116.143-.35.339-.657.59-.922.257-.264.561-.472.911-.622a2.8 2.8 0 011.159-.236c.422 0 .804.079 1.147.236a2.691 2.691 0 011.448 1.544 2.886 2.886 0 01.193 1.288.835.835 0 01-.01.15h-4.645c.022.279.086.532.193.761a1.967 1.967 0 00.998.976c.222.093.454.14.697.14.172 0 .34-.022.504-.065.165-.05.318-.114.461-.193.143-.078.269-.175.376-.29.114-.114.2-.242.257-.385l.815.225a1.991 1.991 0 01-.386.568 2.484 2.484 0 01-.557.45 2.986 2.986 0 01-1.502.397zm1.92-3.282a1.927 1.927 0 00-.204-.73 1.832 1.832 0 00-.997-.944 1.814 1.814 0 00-.708-.14c-.251 0-.487.047-.708.14a1.753 1.753 0 00-.59.376c-.165.157-.3.347-.408.568a2.18 2.18 0 00-.182.73h3.797zm4.438-3.54c-.557.143-.997.39-1.319.74-.322.35-.533.855-.633 1.512.251-.3.537-.525.858-.675a2.34 2.34 0 011.041-.236c.357 0 .686.071.987.214.307.136.572.33.793.58.222.25.394.547.515.89.129.336.193.7.193 1.094 0 .4-.068.768-.204 1.104a2.428 2.428 0 01-.547.848 2.545 2.545 0 01-.858.558 3.009 3.009 0 01-1.104.193c-.859 0-1.509-.3-1.953-.901-.443-.6-.665-1.477-.665-2.628 0-1.166.24-2.08.719-2.746.486-.672 1.191-1.123 2.113-1.351l1.77-.43.171.773-1.877.461zm-1.93 4.054c0 .287.043.551.128.794.086.243.204.454.354.633.158.179.34.318.547.418.215.1.447.15.698.15.243 0 .468-.046.675-.139a1.5 1.5 0 00.526-.386c.15-.172.265-.375.343-.611a2.24 2.24 0 00.129-.773c0-.286-.043-.547-.129-.783a1.891 1.891 0 00-.354-.622 1.514 1.514 0 00-.547-.397 1.758 1.758 0 00-.708-.14c-.25 0-.479.047-.686.14a1.41 1.41 0 00-.515.376 1.916 1.916 0 00-.343.59 2.228 2.228 0 00-.118.75zm7.807 2.768c-.422 0-.808-.075-1.159-.225a2.81 2.81 0 01-.901-.633 2.955 2.955 0 01-.59-.923 3.14 3.14 0 01-.204-1.126c0-.393.068-.765.204-1.116.143-.35.34-.657.59-.922.258-.264.561-.472.912-.622.35-.157.736-.236 1.158-.236.422 0 .805.079 1.148.236a2.687 2.687 0 011.448 1.544 2.886 2.886 0 01.193 1.288.82.82 0 01-.011.15h-4.644c.021.279.086.532.193.761a1.964 1.964 0 00.998.976c.221.093.454.14.697.14.171 0 .339-.022.504-.065a2.42 2.42 0 00.461-.193 1.47 1.47 0 00.375-.29c.115-.114.201-.242.258-.385l.815.225a2.012 2.012 0 01-.386.568 2.468 2.468 0 01-.558.45 2.991 2.991 0 01-1.501.397zm1.919-3.282a1.909 1.909 0 00-.203-.73 1.835 1.835 0 00-.998-.944 1.81 1.81 0 00-.708-.14c-.25 0-.486.047-.708.14a1.773 1.773 0 00-.59.376 1.96 1.96 0 00-.407.568c-.1.222-.161.465-.183.73h3.797zm.923 2.402c.229-.021.418-.075.568-.16.158-.094.286-.255.387-.483.107-.236.196-.562.268-.976.071-.422.143-.97.214-1.642l.172-1.565h3.486v5.598h-.923v-4.858h-1.694l-.161 1.212c-.1.729-.208 1.33-.322 1.802-.107.464-.243.836-.408 1.115-.164.272-.361.465-.59.58a2.174 2.174 0 01-.836.203l-.161-.826zm7.366-.558l3.046-4.268h.762v5.598h-.923V28.09l-2.992 4.183h-.815v-5.598h.922v4.268z" fill="#0D242C"/><path d="M25.11 22.18l2.729-4.723 1.4 2.42-2.753 4.699-1.376-2.397zm-4.2-.31l2.73-4.721h3.63l-2.73 4.698-3.63.024zm-7.047-11.579l5.434-.023 3.796 6.572-2.752 4.699-6.478-11.248zM39.323 21.8l1.662-2.824 1.613 2.824h-3.274zM8.596 6.59l2.729-4.699 29.067-.07-2.728 4.698-29.068.07zm29.637.26l2.729-4.721 10.203 17.678-2.729 4.721L38.232 6.851zm-29.66.404c9.697-.047 19.394-.079 29.09-.095l10.204 17.678-7.142.024-1.4-2.397 3.844-.024c.11 0 .197-.055.26-.166a.292.292 0 00.048-.166c0-.047-2.365-4.168-7.095-12.362a.308.308 0 00-.285-.166l-22.802.07a.308.308 0 00-.285.167.255.255 0 00-.048.142v.071c.016.032 2.389 4.137 7.119 12.315.047.095.126.15.237.167l4.224-.024 1.4 2.42-7.142.024L8.572 7.254z" fill="#9DB0A5"/><path d="M26.054 11.5l-2.729 4.722-1.4-2.42 2.753-4.698 1.376 2.396zm4.2.309l-2.729 4.722h-3.63l2.728-4.698 3.63-.024zm7.047 11.58l-5.434.023-3.796-6.573 2.752-4.698 6.478 11.247zM11.841 11.88l-1.661 2.824-1.614-2.824h3.274zm30.728 15.21l-2.729 4.698-29.067.071 2.729-4.698 29.067-.071zm-29.637-.261l-2.729 4.722L0 13.873l2.729-4.722L12.932 26.83zm29.66-.403c-9.697.047-19.393.079-29.09.095L3.297 8.842l7.143-.024 1.4 2.397-3.845.023c-.11 0-.197.056-.26.166a.292.292 0 00-.048.167c0 .047 2.365 4.168 7.095 12.362.063.11.158.166.285.166l22.803-.071a.308.308 0 00.284-.166.255.255 0 00.048-.142v-.072c-.016-.031-2.389-4.136-7.119-12.315a.296.296 0 00-.237-.166l-4.224.024-1.4-2.42 7.143-.024 10.227 17.678z" fill="#9DB0A5"/></svg>