<svg width="182" height="35" fill="none" xmlns="http://www.w3.org/2000/svg"><path d="M69.637 21.022c-.93-.103-1.6-.317-2.014-.642-.398-.324-.627-.848-.686-1.57a5.635 5.635 0 01-2.08 1.792c-.811.413-1.748.62-2.81.62-.84 0-1.608-.067-2.301-.2-.679-.133-1.247-.361-1.704-.686a2.936 2.936 0 01-.973-1.35c-.192-.575-.23-1.29-.111-2.146.133-.973.384-1.777.752-2.412.369-.634.826-1.136 1.372-1.505a5.216 5.216 0 011.925-.796 11.724 11.724 0 012.346-.221h3.496c.059-.708.051-1.262-.022-1.66-.06-.413-.2-.715-.42-.907-.222-.207-.532-.332-.93-.376-.398-.06-.9-.089-1.505-.089-.442 0-.885.03-1.327.089a13.394 13.394 0 00-2.302.509c-.324.088-.597.17-.818.243l-.399-2.279c.65-.295 1.424-.524 2.324-.686.9-.162 1.866-.243 2.898-.243 1.195 0 2.176.088 2.943.265.782.177 1.38.524 1.793 1.04.413.516.649 1.254.708 2.213.073.959 0 2.22-.222 3.784l-.044.354-.354 2.478c-.103.723-.074 1.232.089 1.527.162.295.48.48.951.553l-.575 2.301zm-3.098-6.727h-3.518c-.428 0-.819.03-1.173.089a2.29 2.29 0 00-.951.332 2.13 2.13 0 00-.709.774c-.191.325-.324.775-.398 1.35-.059.443-.037.797.067 1.062.103.266.273.465.508.598.236.132.524.22.863.265a9.49 9.49 0 001.173.066c.753 0 1.372-.095 1.859-.287a2.69 2.69 0 001.173-.863c.31-.384.545-.848.708-1.394.162-.56.295-1.21.398-1.947v-.045zM81.434 21l1.637-11.794h-4.204l-1.46 7.346c-.177.974-.42 1.763-.73 2.368-.295.605-.694 1.077-1.195 1.416-.487.325-1.092.546-1.815.664-.722.103-1.593.155-2.61.155l.442-2.28c.442 0 .826-.014 1.15-.044.325-.044.605-.132.841-.265.236-.147.436-.369.598-.664.162-.31.295-.73.398-1.261l2.058-9.847h9.78L84.333 21h-2.899zm14.891-4.625c.074-.501.081-.892.022-1.172-.044-.28-.154-.487-.331-.62-.178-.147-.428-.236-.753-.265-.31-.03-.693-.045-1.15-.045h-2.855l-.597 4.36h2.854c.457 0 .848-.015 1.173-.045.324-.03.59-.11.796-.243.222-.148.391-.362.51-.642.132-.295.235-.693.31-1.195l.021-.133zM87.408 21L89.4 6.794h2.92l-.73 5.112h2.81c1.048 0 1.918.059 2.611.177.694.103 1.232.317 1.615.641.384.31.62.768.709 1.372.103.59.088 1.372-.045 2.346-.132.973-.332 1.763-.597 2.367-.266.59-.634 1.048-1.106 1.372-.472.325-1.07.546-1.793.664-.723.103-1.608.155-2.655.155h-5.731zm21.258 0l.708-5.111h-1.748l-2.943 3.053c-.531.546-1.018.974-1.461 1.284-.442.295-.87.509-1.283.641-.398.133-.804.2-1.217.2-.398 0-.819-.023-1.261-.067l.044-2.058c.148 0 .31.008.487.022.192.015.376.022.553.022.192-.014.369-.044.531-.088a.874.874 0 00.398-.221l2.855-2.899c-.605-.074-1.107-.2-1.505-.376a2.117 2.117 0 01-.907-.775c-.207-.354-.332-.789-.376-1.305-.03-.531.015-1.188.133-1.97.132-.973.331-1.755.597-2.345.266-.605.634-1.07 1.106-1.394.487-.325 1.092-.538 1.815-.642.723-.118 1.608-.177 2.655-.177h5.731L111.587 21h-2.921zm-4.027-9.581c-.074.501-.089.892-.045 1.173.059.28.177.494.354.641.177.133.421.214.731.244.309.03.7.044 1.172.044h2.855l.619-4.36h-2.854c-.472 0-.87.016-1.195.045-.31.03-.575.118-.797.266-.221.132-.398.346-.531.641-.118.28-.214.672-.287 1.173l-.022.133zM123.158 21l.885-6.35h-5.753l-.885 6.35h-2.899l1.992-14.206h2.898l-.774 5.444h5.753l.774-5.444h2.899L126.057 21h-2.899zm17.893-.686c-.663.295-1.46.531-2.389.708-.93.177-1.911.266-2.943.266-1.092 0-2.065-.096-2.921-.288-.841-.177-1.542-.531-2.102-1.062-.546-.531-.922-1.276-1.129-2.235-.191-.974-.177-2.242.045-3.806.221-1.563.568-2.825 1.04-3.784.472-.973 1.054-1.726 1.748-2.257a5.671 5.671 0 012.389-1.062 14.687 14.687 0 013.01-.287c2.08 0 3.695.295 4.846.885l-1.062 2.279a32.28 32.28 0 00-1.66-.487c-.708-.207-1.512-.31-2.412-.31-.605 0-1.173.044-1.704.133a3.1 3.1 0 00-1.438.642c-.413.339-.774.848-1.084 1.527-.31.663-.546 1.57-.708 2.721-.163 1.165-.185 2.088-.067 2.766.118.664.34 1.165.664 1.505.339.324.76.53 1.261.62a9.587 9.587 0 001.66.132c.443 0 .885-.03 1.328-.089.457-.073.885-.154 1.283-.243.398-.088.76-.184 1.084-.288.34-.103.62-.191.841-.265l.42 2.28zm2.576-3.319l.31-2.28h5.399l-.31 2.28h-5.399zm19.898 3.32c-.663.294-1.46.53-2.389.707-.93.177-1.911.266-2.943.266-1.092 0-2.066-.096-2.921-.288-.841-.177-1.542-.531-2.102-1.062-.546-.531-.922-1.276-1.129-2.235-.191-.974-.177-2.242.045-3.806.221-1.563.567-2.825 1.04-3.784.472-.973 1.054-1.726 1.748-2.257a5.665 5.665 0 012.389-1.062 14.687 14.687 0 013.01-.287c2.08 0 3.695.295 4.846.885l-1.063 2.279a31.891 31.891 0 00-1.659-.487c-.708-.207-1.512-.31-2.412-.31-.605 0-1.173.044-1.704.133a3.1 3.1 0 00-1.438.642c-.413.339-.775.848-1.084 1.527-.31.663-.546 1.57-.708 2.721-.163 1.165-.185 2.088-.067 2.766.118.664.34 1.165.664 1.505.339.324.76.53 1.261.62a9.587 9.587 0 001.66.132c.442 0 .885-.03 1.327-.089a22.12 22.12 0 001.284-.243c.398-.088.76-.184 1.084-.288.339-.103.62-.191.841-.265l.42 2.28zM56.766 32.273v-5.598h4.645v5.598h-.944v-4.762H57.71v4.762h-.944zm8.97.108a2.22 2.22 0 01-1.223-.343 2.587 2.587 0 01-.848-.87v3.39h-.943v-7.883h.836v1.05a2.53 2.53 0 01.869-.825 2.231 2.231 0 011.17-.322c.385 0 .74.079 1.061.236.322.157.6.372.837.643.236.272.418.583.547.934.135.343.203.704.203 1.083 0 .53-.107 1.015-.321 1.459a2.62 2.62 0 01-.88 1.062 2.273 2.273 0 01-1.308.386zm-.29-.816c.279 0 .53-.057.75-.171.23-.122.423-.279.58-.472.164-.2.29-.425.375-.676.086-.25.13-.507.13-.772 0-.279-.051-.543-.151-.794a1.986 1.986 0 00-.408-.665 1.813 1.813 0 00-.611-.45 1.655 1.655 0 00-1.287-.075c-.179.064-.35.157-.515.279a1.848 1.848 0 00-.418.396c-.115.15-.19.312-.225.483v1.598c.107.243.25.465.428.665.18.2.387.361.623.483.236.114.479.172.729.172zm6.19.816c-.423 0-.805-.075-1.148-.225a2.841 2.841 0 01-.89-.633 2.923 2.923 0 01-.58-.933 3.028 3.028 0 01-.204-1.105c0-.394.068-.765.204-1.116a2.8 2.8 0 01.58-.922c.25-.272.546-.483.89-.633.35-.157.736-.236 1.158-.236a2.7 2.7 0 011.137.236c.343.15.64.361.89.633.258.264.454.572.59.922.136.35.204.722.204 1.116 0 .386-.068.754-.204 1.105-.136.35-.329.66-.58.933-.25.264-.55.475-.9.633-.343.15-.726.225-1.148.225zm-1.856-2.886c0 .387.082.737.246 1.052.172.314.397.564.676.75.279.18.59.268.933.268.343 0 .654-.092.933-.278a1.96 1.96 0 00.676-.751c.172-.322.258-.676.258-1.062s-.086-.736-.258-1.051a1.96 1.96 0 00-.676-.75 1.645 1.645 0 00-.933-.28c-.343 0-.654.097-.933.29a2.081 2.081 0 00-.676.75 2.257 2.257 0 00-.246 1.063zm5.605 2.778v-5.588h.944v4.323l3.132-4.333h.858v5.598h-.944v-4.236l-3.089 4.236h-.9zm7.976.075c-.543 0-1.005-.1-1.383-.3a2.154 2.154 0 01-.858-.858l.772-.343c.129.229.31.407.547.536.243.129.536.193.88.193.407 0 .729-.09.965-.268a.856.856 0 00.354-.718.817.817 0 00-.29-.655c-.186-.171-.45-.26-.794-.268h-.568v-.622h.6a.733.733 0 00.676-.418.868.868 0 00.107-.43c0-.25-.089-.45-.268-.6-.178-.157-.447-.236-.804-.236-.293 0-.54.057-.74.172-.193.114-.35.286-.472.514l-.719-.386c.179-.336.436-.597.772-.783.344-.193.744-.29 1.202-.29.364 0 .686.061.965.183.286.114.508.282.665.504.165.222.247.49.247.805 0 .264-.065.51-.193.74-.122.221-.304.39-.547.504.336.1.593.275.772.525.179.244.268.533.268.87 0 .342-.093.636-.279.879-.186.243-.44.429-.761.558a2.989 2.989 0 01-1.116.193zm3.065-.075v-5.598h2.896c.336 0 .615.067.836.203.222.13.386.297.494.505.114.207.171.428.171.665 0 .3-.071.572-.214.815-.143.236-.35.414-.622.536.322.093.583.26.783.504.2.236.3.53.3.88a1.4 1.4 0 01-.225.804c-.15.222-.361.393-.633.515a2.416 2.416 0 01-.944.171h-2.842zm.9-.665h1.92a.845.845 0 00.462-.128.921.921 0 00.45-.794.903.903 0 00-.118-.461.777.777 0 00-.31-.333.793.793 0 00-.451-.128h-1.952v1.844zm0-2.466h1.75a.793.793 0 00.45-.13.994.994 0 00.408-.804.874.874 0 00-.237-.611.746.746 0 00-.59-.257h-1.78v1.802zm7.176 3.239c-.422 0-.805-.075-1.148-.225a2.841 2.841 0 01-.89-.633 2.923 2.923 0 01-.58-.933 3.028 3.028 0 01-.203-1.105c0-.394.068-.765.204-1.116a2.8 2.8 0 01.579-.922c.25-.272.547-.483.89-.633.35-.157.737-.236 1.159-.236.414 0 .793.079 1.136.236.344.15.64.361.89.633.258.264.455.572.59.922.136.35.204.722.204 1.116 0 .386-.067.754-.203 1.105-.136.35-.33.66-.58.933-.25.264-.55.475-.9.633a2.84 2.84 0 01-1.148.225zm-1.856-2.886c0 .387.082.737.247 1.052.171.314.397.564.676.75.278.18.59.268.933.268.343 0 .654-.092.933-.278.286-.186.511-.436.676-.751.171-.322.257-.676.257-1.062s-.086-.736-.257-1.051a1.96 1.96 0 00-.676-.75 1.644 1.644 0 00-.933-.28c-.343 0-.654.097-.933.29a2.082 2.082 0 00-.676.75 2.257 2.257 0 00-.247 1.063zm4.995 4.098v-2.156h.117a.72.72 0 00.43-.14c.135-.093.253-.253.353-.482.108-.236.194-.558.258-.966.064-.407.107-.926.129-1.555l.053-1.62h3.808v4.763h.761v2.156h-.836v-1.32h-4.237v1.32h-.837zm1.437-2.156h2.767V27.51h-2.027l-.032.869a13.33 13.33 0 01-.129 1.534c-.057.407-.136.733-.236.976-.093.243-.207.425-.343.547zm7.785.944c-.422 0-.808-.075-1.159-.225a2.896 2.896 0 01-.901-.644 3.09 3.09 0 01-.589-.933 3.055 3.055 0 01-.204-1.116c0-.529.118-1.012.354-1.448a2.68 2.68 0 01.997-1.04c.429-.265.926-.397 1.491-.397.551 0 1.03.125 1.437.375.415.244.723.573.923.987l-.923.29a1.5 1.5 0 00-.6-.612 1.675 1.675 0 00-.858-.225c-.344 0-.658.09-.944.268a1.904 1.904 0 00-.665.74 2.21 2.21 0 00-.247 1.062c0 .394.082.751.247 1.073.171.314.397.565.675.75.286.187.601.28.944.28.222 0 .433-.04.633-.118.208-.08.386-.183.536-.311a1.07 1.07 0 00.322-.44l.923.279c-.115.271-.29.515-.526.729a2.565 2.565 0 01-.826.493 2.86 2.86 0 01-1.04.183zm4.609-.108v-4.762h-1.931v-.836h4.805v.836h-1.93v4.762h-.944zm3.597 0v-5.598h2.896c.336 0 .615.067.837.203.221.13.386.297.493.505.115.207.172.428.172.665 0 .3-.072.572-.215.815-.143.236-.35.414-.622.536.322.093.583.26.783.504.2.236.3.53.3.88 0 .314-.075.582-.225.804-.15.222-.361.393-.633.515a2.411 2.411 0 01-.943.171h-2.843zm.901-.665h1.92a.844.844 0 00.461-.128.929.929 0 00.451-.794.91.91 0 00-.118-.461.779.779 0 00-.311-.333.795.795 0 00-.451-.128h-1.952v1.844zm0-2.466h1.748a.795.795 0 00.451-.13.952.952 0 00.3-.353.989.989 0 00.108-.45.876.876 0 00-.236-.612.748.748 0 00-.59-.257h-1.781v1.802zm7.175 3.239a2.84 2.84 0 01-1.148-.225 2.852 2.852 0 01-.89-.633 2.931 2.931 0 01-.579-.933 3.026 3.026 0 01-.204-1.105c0-.394.068-.765.204-1.116.136-.35.329-.658.579-.922.251-.272.547-.483.89-.633a2.8 2.8 0 011.159-.236 2.7 2.7 0 011.137.236c.343.15.64.361.89.633.257.264.454.572.59.922.136.35.204.722.204 1.116 0 .386-.068.754-.204 1.105a2.95 2.95 0 01-.579.933 2.81 2.81 0 01-.901.633c-.343.15-.726.225-1.148.225zm-1.855-2.886c0 .387.082.737.246 1.052.172.314.397.564.676.75.279.18.59.268.933.268.343 0 .654-.092.933-.278.286-.186.512-.436.676-.751.172-.322.257-.676.257-1.062s-.085-.736-.257-1.051a1.957 1.957 0 00-.676-.75 1.645 1.645 0 00-.933-.28c-.343 0-.654.097-.933.29a2.085 2.085 0 00-.676.75 2.263 2.263 0 00-.246 1.063zm8.104 2.778v-5.598h.976l2.08 3.668 2.092-3.668h.955v5.598h-.901v-4.236l-1.845 3.239h-.601l-1.855-3.24v4.237h-.901zm9.888.108c-.421 0-.808-.075-1.158-.225a2.972 2.972 0 01-.901-.633 3.09 3.09 0 01-.59-.933 3.055 3.055 0 01-.204-1.116c0-.53.122-1.012.365-1.448a2.842 2.842 0 011.008-1.051 2.816 2.816 0 011.491-.397c.565 0 1.055.136 1.47.408.421.264.747.615.976 1.05a2.847 2.847 0 01.343 1.61.82.82 0 01-.011.15h-4.644c.028.364.129.69.3.976.179.279.408.5.687.665.278.157.579.236.901.236.343 0 .665-.086.965-.258.307-.171.518-.396.633-.675l.815.225a2.136 2.136 0 01-.547.73 2.573 2.573 0 01-.847.503 2.958 2.958 0 01-1.052.183zm-1.887-3.24h3.818a2.058 2.058 0 00-.311-.965 1.945 1.945 0 00-.686-.654 1.848 1.848 0 00-.923-.236c-.329 0-.633.079-.912.236a1.945 1.945 0 00-.686.654c-.172.279-.272.6-.3.966zm8.171 3.24c-.923 0-1.62-.28-2.092-.837-.472-.558-.708-1.344-.708-2.36 0-.693.058-1.276.172-1.748.114-.479.286-.872.515-1.18a2.7 2.7 0 01.847-.761c.336-.2.722-.365 1.159-.494l2.37-.718.054.815-2.306.697a3.34 3.34 0 00-.987.493 2.06 2.06 0 00-.622.773c-.151.314-.251.718-.301 1.212a1.99 1.99 0 01.837-.88c.372-.214.804-.322 1.298-.322.529 0 .983.111 1.362.333.386.214.679.518.879.912.208.386.312.833.312 1.34 0 .544-.108 1.02-.322 1.427a2.292 2.292 0 01-.944.955c-.415.228-.923.343-1.523.343zm0-.816c.579 0 1.026-.168 1.341-.504.321-.343.482-.797.482-1.362 0-.55-.157-.997-.472-1.34-.314-.344-.765-.515-1.351-.515-.343 0-.654.071-.933.214-.272.143-.49.354-.655.633-.157.272-.236.608-.236 1.008 0 .358.068.68.204.966.143.278.351.5.622.665.272.157.605.236.998.236zm6.202.816a2.91 2.91 0 01-1.158-.225 2.972 2.972 0 01-.901-.633 3.09 3.09 0 01-.59-.933 3.055 3.055 0 01-.204-1.116c0-.53.122-1.012.365-1.448a2.842 2.842 0 011.008-1.051 2.816 2.816 0 011.491-.397c.565 0 1.055.136 1.47.408.421.264.747.615.976 1.05a2.847 2.847 0 01.343 1.61.82.82 0 01-.011.15h-4.644c.028.364.128.69.3.976.179.279.408.5.687.665.278.157.579.236.901.236.343 0 .665-.086.965-.258.307-.171.518-.396.633-.675l.815.225a2.136 2.136 0 01-.547.73 2.568 2.568 0 01-.848.503 2.948 2.948 0 01-1.051.183zm-1.887-3.24h3.818a2.058 2.058 0 00-.311-.965 1.94 1.94 0 00-.687-.654 1.841 1.841 0 00-.922-.236c-.329 0-.633.079-.912.236a1.945 1.945 0 00-.686.654c-.172.279-.272.6-.3.966zm5.039 3.175v-.847c.186 0 .35-.047.493-.14.15-.1.283-.264.397-.493.114-.236.204-.558.268-.965.072-.415.118-.94.14-1.577l.064-1.62h3.808v5.6h-.944V27.51h-2.027l-.022.869c-.028.765-.093 1.402-.193 1.91-.1.507-.239.907-.418 1.2a1.611 1.611 0 01-.665.633 1.993 1.993 0 01-.901.193zm6.469-.043v-5.588h.944v4.323l3.132-4.333h.858v5.598h-.944v-4.236l-3.089 4.236h-.901z" fill="#fff"/><path d="M25.11 22.18l2.729-4.723 1.4 2.42-2.753 4.699-1.376-2.397zm-4.2-.31l2.73-4.721h3.63l-2.73 4.698-3.63.024zm-7.047-11.579l5.434-.023 3.796 6.572-2.752 4.699-6.478-11.248zM39.323 21.8l1.662-2.824 1.613 2.824h-3.274zM8.596 6.59l2.729-4.699 29.067-.07-2.728 4.698-29.068.07zm29.637.26l2.729-4.721 10.203 17.678-2.729 4.721L38.232 6.851zm-29.66.404c9.697-.047 19.394-.079 29.09-.095l10.204 17.678-7.142.024-1.4-2.397 3.844-.024c.11 0 .197-.055.26-.166a.292.292 0 00.048-.166c0-.047-2.365-4.168-7.095-12.362a.308.308 0 00-.285-.166l-22.802.07a.308.308 0 00-.285.167.255.255 0 00-.048.142v.071c.016.032 2.389 4.137 7.119 12.315.047.095.126.15.237.167l4.224-.024 1.4 2.42-7.142.024L8.572 7.254z" fill="#9DB0A5"/><path d="M26.054 11.5l-2.729 4.722-1.4-2.42 2.753-4.698 1.376 2.396zm4.2.309l-2.729 4.722h-3.63l2.728-4.698 3.63-.024zm7.047 11.58l-5.434.023-3.796-6.573 2.752-4.698 6.478 11.247zM11.841 11.88l-1.661 2.824-1.614-2.824h3.274zm30.728 15.21l-2.729 4.698-29.067.071 2.729-4.698 29.067-.071zm-29.637-.261l-2.729 4.722L0 13.873l2.729-4.722L12.932 26.83zm29.66-.403c-9.697.047-19.393.079-29.09.095L3.297 8.842l7.143-.024 1.4 2.397-3.845.023c-.11 0-.197.056-.26.166a.292.292 0 00-.048.167c0 .047 2.365 4.168 7.095 12.362.063.11.158.166.285.166l22.803-.071a.308.308 0 00.284-.166.255.255 0 00.048-.142v-.072c-.016-.031-2.389-4.136-7.119-12.315a.296.296 0 00-.237-.166l-4.224.024-1.4-2.42 7.143-.024 10.227 17.678z" fill="#9DB0A5"/></svg>